<?xml version="1.0" encoding="UTF-8" standalone="no"?>
<!DOCTYPE svg PUBLIC "-//W3C//DTD SVG 1.1//EN"
 "http://www.w3.org/Graphics/SVG/1.1/DTD/svg11.dtd">
<!-- Generated by graphviz version 2.38.0 (20140413.2041)
 -->
<!-- Title: %3 Pages: 1 -->
<svg width="1462pt" height="365pt"
 viewBox="0.00 0.00 1462.45 364.97" xmlns="http://www.w3.org/2000/svg" xmlns:xlink="http://www.w3.org/1999/xlink">
<g id="graph0" class="graph" transform="scale(1 1) rotate(0) translate(4 360.974)">
<title>%3</title>
<polygon fill="white" stroke="none" points="-4,4 -4,-360.974 1458.45,-360.974 1458.45,4 -4,4"/>
<!-- &#45;2309685087350317643 -->
<g id="node1" class="node"><title>&#45;2309685087350317643</title>
<polygon fill="none" stroke="black" points="223.972,-356.974 126.481,-356.974 126.481,-320.974 223.972,-320.974 223.972,-356.974"/>
<text text-anchor="middle" x="175.226" y="-334.774" font-family="Times,serif" font-size="14.00">(&#39;add&#45;#0&#39;, 0, 0)</text>
</g>
<!-- 4784000789618558153 -->
<g id="node2" class="node"><title>4784000789618558153</title>
<ellipse fill="none" stroke="black" cx="175.226" cy="-262.099" rx="22.7515" ry="22.7515"/>
<text text-anchor="middle" x="175.226" y="-257.899" font-family="Times,serif" font-size="14.00">add</text>
</g>
<!-- 4784000789618558153&#45;&gt;&#45;2309685087350317643 -->
<g id="edge1" class="edge"><title>4784000789618558153&#45;&gt;&#45;2309685087350317643</title>
<path fill="none" stroke="black" d="M175.226,-285.159C175.226,-293.166 175.226,-302.31 175.226,-310.713"/>
<polygon fill="black" stroke="black" points="171.726,-310.82 175.226,-320.82 178.726,-310.82 171.726,-310.82"/>
</g>
<!-- 7392743308553970970 -->
<g id="node3" class="node"><title>7392743308553970970</title>
<polygon fill="none" stroke="black" points="166.679,-203.223 -0.22669,-203.223 -0.22669,-167.223 166.679,-167.223 166.679,-203.223"/>
<text text-anchor="middle" x="83.2261" y="-181.023" font-family="Times,serif" font-size="14.00">(&#39;random_sample&#45;#1&#39;, 0, 0)</text>
</g>
<!-- 7392743308553970970&#45;&gt;4784000789618558153 -->
<g id="edge2" class="edge"><title>7392743308553970970&#45;&gt;4784000789618558153</title>
<path fill="none" stroke="black" d="M104.564,-203.589C118.053,-214.568 135.56,-228.816 149.773,-240.383"/>
<polygon fill="black" stroke="black" points="147.74,-243.241 157.705,-246.839 152.158,-237.812 147.74,-243.241"/>
</g>
<!-- 17710950212401903 -->
<g id="node4" class="node"><title>17710950212401903</title>
<polygon fill="none" stroke="black" points="350.679,-203.223 183.773,-203.223 183.773,-167.223 350.679,-167.223 350.679,-203.223"/>
<text text-anchor="middle" x="267.226" y="-181.023" font-family="Times,serif" font-size="14.00">(&#39;random_sample&#45;#2&#39;, 0, 0)</text>
</g>
<!-- 17710950212401903&#45;&gt;4784000789618558153 -->
<g id="edge3" class="edge"><title>17710950212401903&#45;&gt;4784000789618558153</title>
<path fill="none" stroke="black" d="M245.888,-203.589C232.399,-214.568 214.892,-228.816 200.68,-240.383"/>
<polygon fill="black" stroke="black" points="198.294,-237.812 192.747,-246.839 202.712,-243.241 198.294,-237.812"/>
</g>
<!-- &#45;2309685087349152594 -->
<g id="node5" class="node"><title>&#45;2309685087349152594</title>
<polygon fill="none" stroke="black" points="591.972,-356.974 494.481,-356.974 494.481,-320.974 591.972,-320.974 591.972,-356.974"/>
<text text-anchor="middle" x="543.226" y="-334.774" font-family="Times,serif" font-size="14.00">(&#39;add&#45;#0&#39;, 0, 1)</text>
</g>
<!-- 912796431460238034 -->
<g id="node6" class="node"><title>912796431460238034</title>
<ellipse fill="none" stroke="black" cx="543.226" cy="-262.099" rx="22.7515" ry="22.7515"/>
<text text-anchor="middle" x="543.226" y="-257.899" font-family="Times,serif" font-size="14.00">add</text>
</g>
<!-- 912796431460238034&#45;&gt;&#45;2309685087349152594 -->
<g id="edge4" class="edge"><title>912796431460238034&#45;&gt;&#45;2309685087349152594</title>
<path fill="none" stroke="black" d="M543.226,-285.159C543.226,-293.166 543.226,-302.31 543.226,-310.713"/>
<polygon fill="black" stroke="black" points="539.726,-310.82 543.226,-320.82 546.726,-310.82 539.726,-310.82"/>
</g>
<!-- 17710950213566952 -->
<g id="node7" class="node"><title>17710950213566952</title>
<polygon fill="none" stroke="black" points="534.679,-203.223 367.773,-203.223 367.773,-167.223 534.679,-167.223 534.679,-203.223"/>
<text text-anchor="middle" x="451.226" y="-181.023" font-family="Times,serif" font-size="14.00">(&#39;random_sample&#45;#2&#39;, 0, 1)</text>
</g>
<!-- 17710950213566952&#45;&gt;912796431460238034 -->
<g id="edge5" class="edge"><title>17710950213566952&#45;&gt;912796431460238034</title>
<path fill="none" stroke="black" d="M472.564,-203.589C486.053,-214.568 503.56,-228.816 517.773,-240.383"/>
<polygon fill="black" stroke="black" points="515.74,-243.241 525.705,-246.839 520.158,-237.812 515.74,-243.241"/>
</g>
<!-- 7392743308552805921 -->
<g id="node8" class="node"><title>7392743308552805921</title>
<polygon fill="none" stroke="black" points="718.679,-203.223 551.773,-203.223 551.773,-167.223 718.679,-167.223 718.679,-203.223"/>
<text text-anchor="middle" x="635.226" y="-181.023" font-family="Times,serif" font-size="14.00">(&#39;random_sample&#45;#1&#39;, 0, 1)</text>
</g>
<!-- 7392743308552805921&#45;&gt;912796431460238034 -->
<g id="edge6" class="edge"><title>7392743308552805921&#45;&gt;912796431460238034</title>
<path fill="none" stroke="black" d="M613.888,-203.589C600.399,-214.568 582.892,-228.816 568.68,-240.383"/>
<polygon fill="black" stroke="black" points="566.294,-237.812 560.747,-246.839 570.712,-243.241 566.294,-237.812"/>
</g>
<!-- &#45;2309683826153318820 -->
<g id="node9" class="node"><title>&#45;2309683826153318820</title>
<polygon fill="none" stroke="black" points="959.972,-356.974 862.481,-356.974 862.481,-320.974 959.972,-320.974 959.972,-356.974"/>
<text text-anchor="middle" x="911.226" y="-334.774" font-family="Times,serif" font-size="14.00">(&#39;add&#45;#0&#39;, 1, 0)</text>
</g>
<!-- 6962636901677546196 -->
<g id="node10" class="node"><title>6962636901677546196</title>
<ellipse fill="none" stroke="black" cx="911.226" cy="-262.099" rx="22.7515" ry="22.7515"/>
<text text-anchor="middle" x="911.226" y="-257.899" font-family="Times,serif" font-size="14.00">add</text>
</g>
<!-- 6962636901677546196&#45;&gt;&#45;2309683826153318820 -->
<g id="edge7" class="edge"><title>6962636901677546196&#45;&gt;&#45;2309683826153318820</title>
<path fill="none" stroke="black" d="M911.226,-285.159C911.226,-293.166 911.226,-302.31 911.226,-310.713"/>
<polygon fill="black" stroke="black" points="907.726,-310.82 911.226,-320.82 914.726,-310.82 907.726,-310.82"/>
</g>
<!-- 7392742047356972147 -->
<g id="node11" class="node"><title>7392742047356972147</title>
<polygon fill="none" stroke="black" points="902.679,-203.223 735.773,-203.223 735.773,-167.223 902.679,-167.223 902.679,-203.223"/>
<text text-anchor="middle" x="819.226" y="-181.023" font-family="Times,serif" font-size="14.00">(&#39;random_sample&#45;#1&#39;, 1, 0)</text>
</g>
<!-- 7392742047356972147&#45;&gt;6962636901677546196 -->
<g id="edge8" class="edge"><title>7392742047356972147&#45;&gt;6962636901677546196</title>
<path fill="none" stroke="black" d="M840.564,-203.589C854.053,-214.568 871.56,-228.816 885.773,-240.383"/>
<polygon fill="black" stroke="black" points="883.74,-243.241 893.705,-246.839 888.158,-237.812 883.74,-243.241"/>
</g>
<!-- 17712211409400726 -->
<g id="node12" class="node"><title>17712211409400726</title>
<polygon fill="none" stroke="black" points="1086.68,-203.223 919.773,-203.223 919.773,-167.223 1086.68,-167.223 1086.68,-203.223"/>
<text text-anchor="middle" x="1003.23" y="-181.023" font-family="Times,serif" font-size="14.00">(&#39;random_sample&#45;#2&#39;, 1, 0)</text>
</g>
<!-- 17712211409400726&#45;&gt;6962636901677546196 -->
<g id="edge9" class="edge"><title>17712211409400726&#45;&gt;6962636901677546196</title>
<path fill="none" stroke="black" d="M981.888,-203.589C968.399,-214.568 950.892,-228.816 936.68,-240.383"/>
<polygon fill="black" stroke="black" points="934.294,-237.812 928.747,-246.839 938.712,-243.241 934.294,-237.812"/>
</g>
<!-- &#45;2309683826154483869 -->
<g id="node13" class="node"><title>&#45;2309683826154483869</title>
<polygon fill="none" stroke="black" points="1327.97,-356.974 1230.48,-356.974 1230.48,-320.974 1327.97,-320.974 1327.97,-356.974"/>
<text text-anchor="middle" x="1279.23" y="-334.774" font-family="Times,serif" font-size="14.00">(&#39;add&#45;#0&#39;, 1, 1)</text>
</g>
<!-- 6817124167094765771 -->
<g id="node14" class="node"><title>6817124167094765771</title>
<ellipse fill="none" stroke="black" cx="1279.23" cy="-262.099" rx="22.7515" ry="22.7515"/>
<text text-anchor="middle" x="1279.23" y="-257.899" font-family="Times,serif" font-size="14.00">add</text>
</g>
<!-- 6817124167094765771&#45;&gt;&#45;2309683826154483869 -->
<g id="edge10" class="edge"><title>6817124167094765771&#45;&gt;&#45;2309683826154483869</title>
<path fill="none" stroke="black" d="M1279.23,-285.159C1279.23,-293.166 1279.23,-302.31 1279.23,-310.713"/>
<polygon fill="black" stroke="black" points="1275.73,-310.82 1279.23,-320.82 1282.73,-310.82 1275.73,-310.82"/>
</g>
<!-- 7392742047358137196 -->
<g id="node15" class="node"><title>7392742047358137196</title>
<polygon fill="none" stroke="black" points="1270.68,-203.223 1103.77,-203.223 1103.77,-167.223 1270.68,-167.223 1270.68,-203.223"/>
<text text-anchor="middle" x="1187.23" y="-181.023" font-family="Times,serif" font-size="14.00">(&#39;random_sample&#45;#1&#39;, 1, 1)</text>
</g>
<!-- 7392742047358137196&#45;&gt;6817124167094765771 -->
<g id="edge11" class="edge"><title>7392742047358137196&#45;&gt;6817124167094765771</title>
<path fill="none" stroke="black" d="M1208.56,-203.589C1222.05,-214.568 1239.56,-228.816 1253.77,-240.383"/>
<polygon fill="black" stroke="black" points="1251.74,-243.241 1261.71,-246.839 1256.16,-237.812 1251.74,-243.241"/>
</g>
<!-- 17712211408235677 -->
<g id="node16" class="node"><title>17712211408235677</title>
<polygon fill="none" stroke="black" points="1454.68,-203.223 1287.77,-203.223 1287.77,-167.223 1454.68,-167.223 1454.68,-203.223"/>
<text text-anchor="middle" x="1371.23" y="-181.023" font-family="Times,serif" font-size="14.00">(&#39;random_sample&#45;#2&#39;, 1, 1)</text>
</g>
<!-- 17712211408235677&#45;&gt;6817124167094765771 -->
<g id="edge12" class="edge"><title>17712211408235677&#45;&gt;6817124167094765771</title>
<path fill="none" stroke="black" d="M1349.89,-203.589C1336.4,-214.568 1318.89,-228.816 1304.68,-240.383"/>
<polygon fill="black" stroke="black" points="1302.29,-237.812 1296.75,-246.839 1306.71,-243.241 1302.29,-237.812"/>
</g>
<!-- 7272618058055159023 -->
<g id="node17" class="node"><title>7272618058055159023</title>
<ellipse fill="none" stroke="black" cx="267.226" cy="-65.6117" rx="65.7235" ry="65.7235"/>
<text text-anchor="middle" x="267.226" y="-61.4117" font-family="Times,serif" font-size="14.00">_apply_random</text>
</g>
<!-- 7272618058055159023&#45;&gt;17710950212401903 -->
<g id="edge13" class="edge"><title>7272618058055159023&#45;&gt;17710950212401903</title>
<path fill="none" stroke="black" d="M267.226,-131.266C267.226,-140.264 267.226,-149.077 267.226,-156.852"/>
<polygon fill="black" stroke="black" points="263.726,-157.063 267.226,-167.063 270.726,-157.063 263.726,-157.063"/>
</g>
<!-- 4524574478328493448 -->
<g id="node18" class="node"><title>4524574478328493448</title>
<ellipse fill="none" stroke="black" cx="451.226" cy="-65.6117" rx="65.7235" ry="65.7235"/>
<text text-anchor="middle" x="451.226" y="-61.4117" font-family="Times,serif" font-size="14.00">_apply_random</text>
</g>
<!-- 4524574478328493448&#45;&gt;17710950213566952 -->
<g id="edge14" class="edge"><title>4524574478328493448&#45;&gt;17710950213566952</title>
<path fill="none" stroke="black" d="M451.226,-131.266C451.226,-140.264 451.226,-149.077 451.226,-156.852"/>
<polygon fill="black" stroke="black" points="447.726,-157.063 451.226,-167.063 454.726,-157.063 447.726,-157.063"/>
</g>
<!-- &#45;7239759758053116422 -->
<g id="node19" class="node"><title>&#45;7239759758053116422</title>
<ellipse fill="none" stroke="black" cx="1003.23" cy="-65.6117" rx="65.7235" ry="65.7235"/>
<text text-anchor="middle" x="1003.23" y="-61.4117" font-family="Times,serif" font-size="14.00">_apply_random</text>
</g>
<!-- &#45;7239759758053116422&#45;&gt;17712211409400726 -->
<g id="edge15" class="edge"><title>&#45;7239759758053116422&#45;&gt;17712211409400726</title>
<path fill="none" stroke="black" d="M1003.23,-131.266C1003.23,-140.264 1003.23,-149.077 1003.23,-156.852"/>
<polygon fill="black" stroke="black" points="999.726,-157.063 1003.23,-167.063 1006.73,-157.063 999.726,-157.063"/>
</g>
<!-- &#45;3883208692485573647 -->
<g id="node20" class="node"><title>&#45;3883208692485573647</title>
<ellipse fill="none" stroke="black" cx="1371.23" cy="-65.6117" rx="65.7235" ry="65.7235"/>
<text text-anchor="middle" x="1371.23" y="-61.4117" font-family="Times,serif" font-size="14.00">_apply_random</text>
</g>
<!-- &#45;3883208692485573647&#45;&gt;17712211408235677 -->
<g id="edge16" class="edge"><title>&#45;3883208692485573647&#45;&gt;17712211408235677</title>
<path fill="none" stroke="black" d="M1371.23,-131.266C1371.23,-140.264 1371.23,-149.077 1371.23,-156.852"/>
<polygon fill="black" stroke="black" points="1367.73,-157.063 1371.23,-167.063 1374.73,-157.063 1367.73,-157.063"/>
</g>
<!-- 8641449698243855206 -->
<g id="node21" class="node"><title>8641449698243855206</title>
<ellipse fill="none" stroke="black" cx="83.2261" cy="-65.6117" rx="65.7235" ry="65.7235"/>
<text text-anchor="middle" x="83.2261" y="-61.4117" font-family="Times,serif" font-size="14.00">_apply_random</text>
</g>
<!-- 8641449698243855206&#45;&gt;7392743308553970970 -->
<g id="edge17" class="edge"><title>8641449698243855206&#45;&gt;7392743308553970970</title>
<path fill="none" stroke="black" d="M83.2261,-131.266C83.2261,-140.264 83.2261,-149.077 83.2261,-156.852"/>
<polygon fill="black" stroke="black" points="79.7262,-157.063 83.2261,-167.063 86.7262,-157.063 79.7262,-157.063"/>
</g>
<!-- 1110178702119954781 -->
<g id="node22" class="node"><title>1110178702119954781</title>
<ellipse fill="none" stroke="black" cx="635.226" cy="-65.6117" rx="65.7235" ry="65.7235"/>
<text text-anchor="middle" x="635.226" y="-61.4117" font-family="Times,serif" font-size="14.00">_apply_random</text>
</g>
<!-- 1110178702119954781&#45;&gt;7392743308552805921 -->
<g id="edge18" class="edge"><title>1110178702119954781&#45;&gt;7392743308552805921</title>
<path fill="none" stroke="black" d="M635.226,-131.266C635.226,-140.264 635.226,-149.077 635.226,-156.852"/>
<polygon fill="black" stroke="black" points="631.726,-157.063 635.226,-167.063 638.726,-157.063 631.726,-157.063"/>
</g>
<!-- &#45;2611577871378867621 -->
<g id="node23" class="node"><title>&#45;2611577871378867621</title>
<ellipse fill="none" stroke="black" cx="819.226" cy="-65.6117" rx="65.7235" ry="65.7235"/>
<text text-anchor="middle" x="819.226" y="-61.4117" font-family="Times,serif" font-size="14.00">_apply_random</text>
</g>
<!-- &#45;2611577871378867621&#45;&gt;7392742047356972147 -->
<g id="edge19" class="edge"><title>&#45;2611577871378867621&#45;&gt;7392742047356972147</title>
<path fill="none" stroke="black" d="M819.226,-131.266C819.226,-140.264 819.226,-149.077 819.226,-156.852"/>
<polygon fill="black" stroke="black" points="815.726,-157.063 819.226,-167.063 822.726,-157.063 815.726,-157.063"/>
</g>
<!-- &#45;5283720996262634396 -->
<g id="node24" class="node"><title>&#45;5283720996262634396</title>
<ellipse fill="none" stroke="black" cx="1187.23" cy="-65.6117" rx="65.7235" ry="65.7235"/>
<text text-anchor="middle" x="1187.23" y="-61.4117" font-family="Times,serif" font-size="14.00">_apply_random</text>
</g>
<!-- &#45;5283720996262634396&#45;&gt;7392742047358137196 -->
<g id="edge20" class="edge"><title>&#45;5283720996262634396&#45;&gt;7392742047358137196</title>
<path fill="none" stroke="black" d="M1187.23,-131.266C1187.23,-140.264 1187.23,-149.077 1187.23,-156.852"/>
<polygon fill="black" stroke="black" points="1183.73,-157.063 1187.23,-167.063 1190.73,-157.063 1183.73,-157.063"/>
</g>
</g>
</svg>
