<?xml version="1.0" encoding="UTF-8" standalone="no"?>
<!DOCTYPE svg PUBLIC "-//W3C//DTD SVG 1.1//EN"
 "http://www.w3.org/Graphics/SVG/1.1/DTD/svg11.dtd">
<!-- Generated by graphviz version 2.38.0 (20140413.2041)
 -->
<!-- Title: %3 Pages: 1 -->
<svg width="870pt" height="937pt"
 viewBox="0.00 0.00 869.78 936.56" xmlns="http://www.w3.org/2000/svg" xmlns:xlink="http://www.w3.org/1999/xlink">
<g id="graph0" class="graph" transform="scale(1 1) rotate(0) translate(4 932.563)">
<title>%3</title>
<polygon fill="white" stroke="none" points="-4,4 -4,-932.563 865.783,-932.563 865.783,4 -4,4"/>
<!-- &#45;2067517010467037483 -->
<g id="node1" class="node"><title>&#45;2067517010467037483</title>
<polygon fill="none" stroke="black" points="522.078,-928.563 429.705,-928.563 429.705,-892.563 522.078,-892.563 522.078,-928.563"/>
<text text-anchor="middle" x="475.892" y="-906.363" font-family="Times,serif" font-size="14.00">(&#39;truediv&#45;#0&#39;,)</text>
</g>
<!-- &#45;297074151755920640 -->
<g id="node2" class="node"><title>&#45;297074151755920640</title>
<ellipse fill="none" stroke="black" cx="475.892" cy="-791.456" rx="65.2131" ry="65.2131"/>
<text text-anchor="middle" x="475.892" y="-787.256" font-family="Times,serif" font-size="14.00">_enforce_dtype</text>
</g>
<!-- &#45;297074151755920640&#45;&gt;&#45;2067517010467037483 -->
<g id="edge1" class="edge"><title>&#45;297074151755920640&#45;&gt;&#45;2067517010467037483</title>
<path fill="none" stroke="black" d="M475.892,-856.834C475.892,-865.792 475.892,-874.568 475.892,-882.309"/>
<polygon fill="black" stroke="black" points="472.392,-882.476 475.892,-892.476 479.392,-882.476 472.392,-882.476"/>
</g>
<!-- &#45;725763993424842752 -->
<g id="node3" class="node"><title>&#45;725763993424842752</title>
<polygon fill="none" stroke="black" points="488.33,-690.35 353.453,-690.35 353.453,-654.35 488.33,-654.35 488.33,-690.35"/>
<text text-anchor="middle" x="420.892" y="-668.15" font-family="Times,serif" font-size="14.00">(&#39;sum&#45;aggregate&#45;#1&#39;,)</text>
</g>
<!-- &#45;725763993424842752&#45;&gt;&#45;297074151755920640 -->
<g id="edge2" class="edge"><title>&#45;725763993424842752&#45;&gt;&#45;297074151755920640</title>
<path fill="none" stroke="black" d="M428.889,-690.378C433.068,-699.275 438.484,-710.807 444.146,-722.863"/>
<polygon fill="black" stroke="black" points="441.088,-724.586 448.507,-732.15 447.424,-721.61 441.088,-724.586"/>
</g>
<!-- 9056936076598770745 -->
<g id="node4" class="node"><title>9056936076598770745</title>
<polygon fill="none" stroke="black" points="615.33,-611.501 480.453,-611.501 480.453,-575.501 615.33,-575.501 615.33,-611.501"/>
<text text-anchor="middle" x="547.892" y="-589.301" font-family="Times,serif" font-size="14.00">(&#39;sum&#45;aggregate&#45;#2&#39;,)</text>
</g>
<!-- 9056936076598770745&#45;&gt;&#45;297074151755920640 -->
<g id="edge3" class="edge"><title>9056936076598770745&#45;&gt;&#45;297074151755920640</title>
<path fill="none" stroke="black" d="M541.628,-611.548C532.765,-635.669 516.043,-681.18 501.683,-720.262"/>
<polygon fill="black" stroke="black" points="498.253,-719.449 498.09,-730.043 504.824,-721.863 498.253,-719.449"/>
</g>
<!-- &#45;2450277161089285967 -->
<g id="node5" class="node"><title>&#45;2450277161089285967</title>
<polygon fill="none" stroke="black" points="148.262,-532.652 61.5217,-532.652 61.5217,-496.652 148.262,-496.652 148.262,-532.652"/>
<text text-anchor="middle" x="104.892" y="-510.452" font-family="Times,serif" font-size="14.00">(&#39;sum&#45;#3&#39;, 0)</text>
</g>
<!-- &#45;1451969551213032759 -->
<g id="node39" class="node"><title>&#45;1451969551213032759</title>
<ellipse fill="none" stroke="black" cx="388.892" cy="-593.501" rx="24.6985" ry="24.6985"/>
<text text-anchor="middle" x="388.892" y="-589.301" font-family="Times,serif" font-size="14.00">sum</text>
</g>
<!-- &#45;2450277161089285967&#45;&gt;&#45;1451969551213032759 -->
<g id="edge41" class="edge"><title>&#45;2450277161089285967&#45;&gt;&#45;1451969551213032759</title>
<path fill="none" stroke="black" d="M148.334,-527.408C205.174,-542.788 303.585,-569.418 355.153,-583.372"/>
<polygon fill="black" stroke="black" points="354.548,-586.834 365.116,-586.068 356.377,-580.077 354.548,-586.834"/>
</g>
<!-- 6544528089582508572 -->
<g id="node6" class="node"><title>6544528089582508572</title>
<ellipse fill="none" stroke="black" cx="91.8916" cy="-435.804" rx="24.6985" ry="24.6985"/>
<text text-anchor="middle" x="91.8916" y="-431.604" font-family="Times,serif" font-size="14.00">sum</text>
</g>
<!-- 6544528089582508572&#45;&gt;&#45;2450277161089285967 -->
<g id="edge4" class="edge"><title>6544528089582508572&#45;&gt;&#45;2450277161089285967</title>
<path fill="none" stroke="black" d="M95.9336,-460.698C97.3172,-468.877 98.875,-478.085 100.299,-486.502"/>
<polygon fill="black" stroke="black" points="96.8885,-487.327 102.007,-496.603 103.79,-486.159 96.8885,-487.327"/>
</g>
<!-- 1797974382198905697 -->
<g id="node7" class="node"><title>1797974382198905697</title>
<polygon fill="none" stroke="black" points="121.202,-374.955 36.5808,-374.955 36.5808,-338.955 121.202,-338.955 121.202,-374.955"/>
<text text-anchor="middle" x="78.8916" y="-352.755" font-family="Times,serif" font-size="14.00">(&#39;mul&#45;#4&#39;, 0)</text>
</g>
<!-- 1797974382198905697&#45;&gt;6544528089582508572 -->
<g id="edge5" class="edge"><title>1797974382198905697&#45;&gt;6544528089582508572</title>
<path fill="none" stroke="black" d="M81.7767,-375.01C83.0811,-382.721 84.6702,-392.115 86.1989,-401.151"/>
<polygon fill="black" stroke="black" points="82.7617,-401.817 87.8807,-411.093 89.6636,-400.649 82.7617,-401.817"/>
</g>
<!-- &#45;2450277161088203442 -->
<g id="node8" class="node"><title>&#45;2450277161088203442</title>
<polygon fill="none" stroke="black" points="303.262,-532.652 216.522,-532.652 216.522,-496.652 303.262,-496.652 303.262,-532.652"/>
<text text-anchor="middle" x="259.892" y="-510.452" font-family="Times,serif" font-size="14.00">(&#39;sum&#45;#3&#39;, 1)</text>
</g>
<!-- &#45;2450277161088203442&#45;&gt;&#45;1451969551213032759 -->
<g id="edge43" class="edge"><title>&#45;2450277161088203442&#45;&gt;&#45;1451969551213032759</title>
<path fill="none" stroke="black" d="M288.521,-532.708C309.564,-545.244 338.077,-562.23 359.336,-574.894"/>
<polygon fill="black" stroke="black" points="357.577,-577.92 367.959,-580.031 361.16,-571.906 357.577,-577.92"/>
</g>
<!-- 2896075942660331447 -->
<g id="node9" class="node"><title>2896075942660331447</title>
<ellipse fill="none" stroke="black" cx="220.892" cy="-435.804" rx="24.6985" ry="24.6985"/>
<text text-anchor="middle" x="220.892" y="-431.604" font-family="Times,serif" font-size="14.00">sum</text>
</g>
<!-- 2896075942660331447&#45;&gt;&#45;2450277161088203442 -->
<g id="edge6" class="edge"><title>2896075942660331447&#45;&gt;&#45;2450277161088203442</title>
<path fill="none" stroke="black" d="M231.755,-458.21C236.353,-467.27 241.754,-477.912 246.588,-487.437"/>
<polygon fill="black" stroke="black" points="243.535,-489.156 251.182,-496.49 249.777,-485.988 243.535,-489.156"/>
</g>
<!-- 1797974382199988222 -->
<g id="node10" class="node"><title>1797974382199988222</title>
<polygon fill="none" stroke="black" points="224.202,-374.955 139.581,-374.955 139.581,-338.955 224.202,-338.955 224.202,-374.955"/>
<text text-anchor="middle" x="181.892" y="-352.755" font-family="Times,serif" font-size="14.00">(&#39;mul&#45;#4&#39;, 1)</text>
</g>
<!-- 1797974382199988222&#45;&gt;2896075942660331447 -->
<g id="edge7" class="edge"><title>1797974382199988222&#45;&gt;2896075942660331447</title>
<path fill="none" stroke="black" d="M190.547,-375.01C194.9,-383.589 200.311,-394.251 205.353,-404.186"/>
<polygon fill="black" stroke="black" points="202.381,-406.063 210.028,-413.397 208.623,-402.896 202.381,-406.063"/>
</g>
<!-- &#45;2450277161091451017 -->
<g id="node11" class="node"><title>&#45;2450277161091451017</title>
<polygon fill="none" stroke="black" points="432.262,-532.652 345.522,-532.652 345.522,-496.652 432.262,-496.652 432.262,-532.652"/>
<text text-anchor="middle" x="388.892" y="-510.452" font-family="Times,serif" font-size="14.00">(&#39;sum&#45;#3&#39;, 2)</text>
</g>
<!-- &#45;2450277161091451017&#45;&gt;&#45;1451969551213032759 -->
<g id="edge44" class="edge"><title>&#45;2450277161091451017&#45;&gt;&#45;1451969551213032759</title>
<path fill="none" stroke="black" d="M388.892,-532.708C388.892,-540.272 388.892,-549.456 388.892,-558.334"/>
<polygon fill="black" stroke="black" points="385.392,-558.499 388.892,-568.499 392.392,-558.499 385.392,-558.499"/>
</g>
<!-- &#45;279678952297742478 -->
<g id="node12" class="node"><title>&#45;279678952297742478</title>
<ellipse fill="none" stroke="black" cx="388.892" cy="-435.804" rx="24.6985" ry="24.6985"/>
<text text-anchor="middle" x="388.892" y="-431.604" font-family="Times,serif" font-size="14.00">sum</text>
</g>
<!-- &#45;279678952297742478&#45;&gt;&#45;2450277161091451017 -->
<g id="edge8" class="edge"><title>&#45;279678952297742478&#45;&gt;&#45;2450277161091451017</title>
<path fill="none" stroke="black" d="M388.892,-460.698C388.892,-468.877 388.892,-478.085 388.892,-486.502"/>
<polygon fill="black" stroke="black" points="385.392,-486.603 388.892,-496.603 392.392,-486.603 385.392,-486.603"/>
</g>
<!-- 1797974382196740647 -->
<g id="node13" class="node"><title>1797974382196740647</title>
<polygon fill="none" stroke="black" points="432.202,-374.955 347.581,-374.955 347.581,-338.955 432.202,-338.955 432.202,-374.955"/>
<text text-anchor="middle" x="389.892" y="-352.755" font-family="Times,serif" font-size="14.00">(&#39;mul&#45;#4&#39;, 2)</text>
</g>
<!-- 1797974382196740647&#45;&gt;&#45;279678952297742478 -->
<g id="edge9" class="edge"><title>1797974382196740647&#45;&gt;&#45;279678952297742478</title>
<path fill="none" stroke="black" d="M389.67,-375.01C389.571,-382.574 389.452,-391.759 389.336,-400.636"/>
<polygon fill="black" stroke="black" points="385.834,-400.756 389.204,-410.801 392.834,-400.847 385.834,-400.756"/>
</g>
<!-- &#45;2450277161090368492 -->
<g id="node14" class="node"><title>&#45;2450277161090368492</title>
<polygon fill="none" stroke="black" points="536.262,-532.652 449.522,-532.652 449.522,-496.652 536.262,-496.652 536.262,-532.652"/>
<text text-anchor="middle" x="492.892" y="-510.452" font-family="Times,serif" font-size="14.00">(&#39;sum&#45;#3&#39;, 3)</text>
</g>
<!-- &#45;2450277161090368492&#45;&gt;&#45;1451969551213032759 -->
<g id="edge42" class="edge"><title>&#45;2450277161090368492&#45;&gt;&#45;1451969551213032759</title>
<path fill="none" stroke="black" d="M469.811,-532.708C454.115,-544.306 433.266,-559.712 416.661,-571.981"/>
<polygon fill="black" stroke="black" points="414.378,-569.317 408.415,-578.075 418.538,-574.947 414.378,-569.317"/>
</g>
<!-- &#45;3942763141237084003 -->
<g id="node15" class="node"><title>&#45;3942763141237084003</title>
<ellipse fill="none" stroke="black" cx="492.892" cy="-435.804" rx="24.6985" ry="24.6985"/>
<text text-anchor="middle" x="492.892" y="-431.604" font-family="Times,serif" font-size="14.00">sum</text>
</g>
<!-- &#45;3942763141237084003&#45;&gt;&#45;2450277161090368492 -->
<g id="edge10" class="edge"><title>&#45;3942763141237084003&#45;&gt;&#45;2450277161090368492</title>
<path fill="none" stroke="black" d="M492.892,-460.698C492.892,-468.877 492.892,-478.085 492.892,-486.502"/>
<polygon fill="black" stroke="black" points="489.392,-486.603 492.892,-496.603 496.392,-486.603 489.392,-486.603"/>
</g>
<!-- 1797974382197823172 -->
<g id="node16" class="node"><title>1797974382197823172</title>
<polygon fill="none" stroke="black" points="535.202,-374.955 450.581,-374.955 450.581,-338.955 535.202,-338.955 535.202,-374.955"/>
<text text-anchor="middle" x="492.892" y="-352.755" font-family="Times,serif" font-size="14.00">(&#39;mul&#45;#4&#39;, 3)</text>
</g>
<!-- 1797974382197823172&#45;&gt;&#45;3942763141237084003 -->
<g id="edge11" class="edge"><title>1797974382197823172&#45;&gt;&#45;3942763141237084003</title>
<path fill="none" stroke="black" d="M492.892,-375.01C492.892,-382.574 492.892,-391.759 492.892,-400.636"/>
<polygon fill="black" stroke="black" points="489.392,-400.801 492.892,-410.801 496.392,-400.801 489.392,-400.801"/>
</g>
<!-- 7325229777933439308 -->
<g id="node17" class="node"><title>7325229777933439308</title>
<ellipse fill="none" stroke="black" cx="78.8916" cy="-278.106" rx="23.7293" ry="23.7293"/>
<text text-anchor="middle" x="78.8916" y="-273.906" font-family="Times,serif" font-size="14.00">mul</text>
</g>
<!-- 7325229777933439308&#45;&gt;1797974382198905697 -->
<g id="edge12" class="edge"><title>7325229777933439308&#45;&gt;1797974382198905697</title>
<path fill="none" stroke="black" d="M78.8916,-302.163C78.8916,-310.37 78.8916,-319.696 78.8916,-328.252"/>
<polygon fill="black" stroke="black" points="75.3917,-328.535 78.8916,-338.535 82.3917,-328.535 75.3917,-328.535"/>
</g>
<!-- &#45;4946297265463859822 -->
<g id="node18" class="node"><title>&#45;4946297265463859822</title>
<polygon fill="none" stroke="black" points="91.6751,-217.257 0.108143,-217.257 0.108143,-181.257 91.6751,-181.257 91.6751,-217.257"/>
<text text-anchor="middle" x="45.8916" y="-195.057" font-family="Times,serif" font-size="14.00">(&#39;array&#45;#5&#39;, 0)</text>
</g>
<!-- &#45;4946297265463859822&#45;&gt;7325229777933439308 -->
<g id="edge13" class="edge"><title>&#45;4946297265463859822&#45;&gt;7325229777933439308</title>
<path fill="none" stroke="black" d="M53.2154,-217.312C56.9279,-225.958 61.5492,-236.72 65.8439,-246.721"/>
<polygon fill="black" stroke="black" points="62.6592,-248.175 69.821,-255.983 69.0912,-245.413 62.6592,-248.175"/>
</g>
<!-- 1414470623466389914 -->
<g id="node19" class="node"><title>1414470623466389914</title>
<polygon fill="none" stroke="black" points="311.675,-217.257 220.108,-217.257 220.108,-181.257 311.675,-181.257 311.675,-217.257"/>
<text text-anchor="middle" x="265.892" y="-195.057" font-family="Times,serif" font-size="14.00">(&#39;array&#45;#6&#39;, 0)</text>
</g>
<!-- 1414470623466389914&#45;&gt;7325229777933439308 -->
<g id="edge14" class="edge"><title>1414470623466389914&#45;&gt;7325229777933439308</title>
<path fill="none" stroke="black" d="M224.39,-217.312C189.922,-231.477 141.63,-251.323 110.305,-264.197"/>
<polygon fill="black" stroke="black" points="108.688,-261.077 100.769,-268.115 111.349,-267.551 108.688,-261.077"/>
</g>
<!-- &#45;4251564039462656224 -->
<g id="node41" class="node"><title>&#45;4251564039462656224</title>
<ellipse fill="none" stroke="black" cx="275.892" cy="-278.106" rx="24.6985" ry="24.6985"/>
<text text-anchor="middle" x="275.892" y="-273.906" font-family="Times,serif" font-size="14.00">sum</text>
</g>
<!-- 1414470623466389914&#45;&gt;&#45;4251564039462656224 -->
<g id="edge46" class="edge"><title>1414470623466389914&#45;&gt;&#45;4251564039462656224</title>
<path fill="none" stroke="black" d="M268.111,-217.312C269.114,-225.023 270.337,-234.417 271.513,-243.454"/>
<polygon fill="black" stroke="black" points="268.045,-243.931 272.806,-253.396 274.987,-243.027 268.045,-243.931"/>
</g>
<!-- &#45;5400597571881598233 -->
<g id="node20" class="node"><title>&#45;5400597571881598233</title>
<ellipse fill="none" stroke="black" cx="181.892" cy="-278.106" rx="23.7293" ry="23.7293"/>
<text text-anchor="middle" x="181.892" y="-273.906" font-family="Times,serif" font-size="14.00">mul</text>
</g>
<!-- &#45;5400597571881598233&#45;&gt;1797974382199988222 -->
<g id="edge15" class="edge"><title>&#45;5400597571881598233&#45;&gt;1797974382199988222</title>
<path fill="none" stroke="black" d="M181.892,-302.163C181.892,-310.37 181.892,-319.696 181.892,-328.252"/>
<polygon fill="black" stroke="black" points="178.392,-328.535 181.892,-338.535 185.392,-328.535 178.392,-328.535"/>
</g>
<!-- 1414470623465307389 -->
<g id="node21" class="node"><title>1414470623465307389</title>
<polygon fill="none" stroke="black" points="641.675,-217.257 550.108,-217.257 550.108,-181.257 641.675,-181.257 641.675,-217.257"/>
<text text-anchor="middle" x="595.892" y="-195.057" font-family="Times,serif" font-size="14.00">(&#39;array&#45;#6&#39;, 1)</text>
</g>
<!-- 1414470623465307389&#45;&gt;&#45;5400597571881598233 -->
<g id="edge16" class="edge"><title>1414470623465307389&#45;&gt;&#45;5400597571881598233</title>
<path fill="none" stroke="black" d="M549.837,-215.152C546.825,-215.921 543.824,-216.633 540.892,-217.257 409.978,-245.133 371.61,-220.262 241.892,-253.257 232.055,-255.759 221.671,-259.475 212.357,-263.233"/>
<polygon fill="black" stroke="black" points="210.972,-260.018 203.106,-267.115 213.681,-266.472 210.972,-260.018"/>
</g>
<!-- 3841208033517297451 -->
<g id="node43" class="node"><title>3841208033517297451</title>
<ellipse fill="none" stroke="black" cx="595.892" cy="-278.106" rx="24.6985" ry="24.6985"/>
<text text-anchor="middle" x="595.892" y="-273.906" font-family="Times,serif" font-size="14.00">sum</text>
</g>
<!-- 1414470623465307389&#45;&gt;3841208033517297451 -->
<g id="edge48" class="edge"><title>1414470623465307389&#45;&gt;3841208033517297451</title>
<path fill="none" stroke="black" d="M595.892,-217.312C595.892,-224.877 595.892,-234.061 595.892,-242.938"/>
<polygon fill="black" stroke="black" points="592.392,-243.103 595.892,-253.103 599.392,-243.103 592.392,-243.103"/>
</g>
<!-- &#45;4946297265464942347 -->
<g id="node22" class="node"><title>&#45;4946297265464942347</title>
<polygon fill="none" stroke="black" points="201.675,-217.257 110.108,-217.257 110.108,-181.257 201.675,-181.257 201.675,-217.257"/>
<text text-anchor="middle" x="155.892" y="-195.057" font-family="Times,serif" font-size="14.00">(&#39;array&#45;#5&#39;, 1)</text>
</g>
<!-- &#45;4946297265464942347&#45;&gt;&#45;5400597571881598233 -->
<g id="edge17" class="edge"><title>&#45;4946297265464942347&#45;&gt;&#45;5400597571881598233</title>
<path fill="none" stroke="black" d="M161.662,-217.312C164.46,-225.583 167.913,-235.79 171.17,-245.415"/>
<polygon fill="black" stroke="black" points="167.936,-246.778 174.456,-255.129 174.567,-244.535 167.936,-246.778"/>
</g>
<!-- &#45;9166484940180644958 -->
<g id="node23" class="node"><title>&#45;9166484940180644958</title>
<ellipse fill="none" stroke="black" cx="389.892" cy="-278.106" rx="23.7293" ry="23.7293"/>
<text text-anchor="middle" x="389.892" y="-273.906" font-family="Times,serif" font-size="14.00">mul</text>
</g>
<!-- &#45;9166484940180644958&#45;&gt;1797974382196740647 -->
<g id="edge18" class="edge"><title>&#45;9166484940180644958&#45;&gt;1797974382196740647</title>
<path fill="none" stroke="black" d="M389.892,-302.163C389.892,-310.37 389.892,-319.696 389.892,-328.252"/>
<polygon fill="black" stroke="black" points="386.392,-328.535 389.892,-338.535 393.392,-328.535 386.392,-328.535"/>
</g>
<!-- &#45;4946297265466024872 -->
<g id="node24" class="node"><title>&#45;4946297265466024872</title>
<polygon fill="none" stroke="black" points="421.675,-217.257 330.108,-217.257 330.108,-181.257 421.675,-181.257 421.675,-217.257"/>
<text text-anchor="middle" x="375.892" y="-195.057" font-family="Times,serif" font-size="14.00">(&#39;array&#45;#5&#39;, 2)</text>
</g>
<!-- &#45;4946297265466024872&#45;&gt;&#45;9166484940180644958 -->
<g id="edge19" class="edge"><title>&#45;4946297265466024872&#45;&gt;&#45;9166484940180644958</title>
<path fill="none" stroke="black" d="M378.999,-217.312C380.466,-225.366 382.267,-235.256 383.98,-244.656"/>
<polygon fill="black" stroke="black" points="380.548,-245.344 385.783,-254.555 387.434,-244.09 380.548,-245.344"/>
</g>
<!-- 1414470623464224864 -->
<g id="node25" class="node"><title>1414470623464224864</title>
<polygon fill="none" stroke="black" points="751.675,-217.257 660.108,-217.257 660.108,-181.257 751.675,-181.257 751.675,-217.257"/>
<text text-anchor="middle" x="705.892" y="-195.057" font-family="Times,serif" font-size="14.00">(&#39;array&#45;#6&#39;, 2)</text>
</g>
<!-- 1414470623464224864&#45;&gt;&#45;9166484940180644958 -->
<g id="edge20" class="edge"><title>1414470623464224864&#45;&gt;&#45;9166484940180644958</title>
<path fill="none" stroke="black" d="M660.085,-214.842C656.984,-215.697 653.899,-216.512 650.892,-217.257 567.047,-238.045 543.431,-231.273 459.892,-253.257 447.185,-256.601 433.45,-261.083 421.54,-265.259"/>
<polygon fill="black" stroke="black" points="420.264,-261.998 412.028,-268.662 422.622,-268.589 420.264,-261.998"/>
</g>
<!-- &#45;2820273067194004474 -->
<g id="node45" class="node"><title>&#45;2820273067194004474</title>
<ellipse fill="none" stroke="black" cx="704.892" cy="-278.106" rx="24.6985" ry="24.6985"/>
<text text-anchor="middle" x="704.892" y="-273.906" font-family="Times,serif" font-size="14.00">sum</text>
</g>
<!-- 1414470623464224864&#45;&gt;&#45;2820273067194004474 -->
<g id="edge50" class="edge"><title>1414470623464224864&#45;&gt;&#45;2820273067194004474</title>
<path fill="none" stroke="black" d="M705.67,-217.312C705.571,-224.877 705.452,-234.061 705.336,-242.938"/>
<polygon fill="black" stroke="black" points="701.834,-243.059 705.204,-253.103 708.834,-243.15 701.834,-243.059"/>
</g>
<!-- 5632406039747155533 -->
<g id="node26" class="node"><title>5632406039747155533</title>
<ellipse fill="none" stroke="black" cx="492.892" cy="-278.106" rx="23.7293" ry="23.7293"/>
<text text-anchor="middle" x="492.892" y="-273.906" font-family="Times,serif" font-size="14.00">mul</text>
</g>
<!-- 5632406039747155533&#45;&gt;1797974382197823172 -->
<g id="edge21" class="edge"><title>5632406039747155533&#45;&gt;1797974382197823172</title>
<path fill="none" stroke="black" d="M492.892,-302.163C492.892,-310.37 492.892,-319.696 492.892,-328.252"/>
<polygon fill="black" stroke="black" points="489.392,-328.535 492.892,-338.535 496.392,-328.535 489.392,-328.535"/>
</g>
<!-- &#45;4946297265467107397 -->
<g id="node27" class="node"><title>&#45;4946297265467107397</title>
<polygon fill="none" stroke="black" points="531.675,-217.257 440.108,-217.257 440.108,-181.257 531.675,-181.257 531.675,-217.257"/>
<text text-anchor="middle" x="485.892" y="-195.057" font-family="Times,serif" font-size="14.00">(&#39;array&#45;#5&#39;, 3)</text>
</g>
<!-- &#45;4946297265467107397&#45;&gt;5632406039747155533 -->
<g id="edge22" class="edge"><title>&#45;4946297265467107397&#45;&gt;5632406039747155533</title>
<path fill="none" stroke="black" d="M487.445,-217.312C488.165,-225.216 489.046,-234.888 489.888,-244.131"/>
<polygon fill="black" stroke="black" points="486.418,-244.625 490.811,-254.267 493.39,-243.99 486.418,-244.625"/>
</g>
<!-- 1414470623463142339 -->
<g id="node28" class="node"><title>1414470623463142339</title>
<polygon fill="none" stroke="black" points="861.675,-217.257 770.108,-217.257 770.108,-181.257 861.675,-181.257 861.675,-217.257"/>
<text text-anchor="middle" x="815.892" y="-195.057" font-family="Times,serif" font-size="14.00">(&#39;array&#45;#6&#39;, 3)</text>
</g>
<!-- 1414470623463142339&#45;&gt;5632406039747155533 -->
<g id="edge23" class="edge"><title>1414470623463142339&#45;&gt;5632406039747155533</title>
<path fill="none" stroke="black" d="M770.091,-214.867C766.989,-215.717 763.902,-216.523 760.892,-217.257 673.574,-238.567 648.845,-230.509 561.892,-253.257 549.563,-256.483 536.274,-260.853 524.682,-264.972"/>
<polygon fill="black" stroke="black" points="523.201,-261.786 514.998,-268.492 525.593,-268.365 523.201,-261.786"/>
</g>
<!-- &#45;5379013111555441999 -->
<g id="node47" class="node"><title>&#45;5379013111555441999</title>
<ellipse fill="none" stroke="black" cx="813.892" cy="-278.106" rx="24.6985" ry="24.6985"/>
<text text-anchor="middle" x="813.892" y="-273.906" font-family="Times,serif" font-size="14.00">sum</text>
</g>
<!-- 1414470623463142339&#45;&gt;&#45;5379013111555441999 -->
<g id="edge52" class="edge"><title>1414470623463142339&#45;&gt;&#45;5379013111555441999</title>
<path fill="none" stroke="black" d="M815.448,-217.312C815.251,-224.877 815.012,-234.061 814.781,-242.938"/>
<polygon fill="black" stroke="black" points="811.278,-243.016 814.516,-253.103 818.275,-243.198 811.278,-243.016"/>
</g>
<!-- 879837430962634539 -->
<g id="node29" class="node"><title>879837430962634539</title>
<ellipse fill="none" stroke="black" cx="62.8916" cy="-108.629" rx="36.7576" ry="36.7576"/>
<text text-anchor="middle" x="62.8916" y="-104.429" font-family="Times,serif" font-size="14.00">getitem</text>
</g>
<!-- 879837430962634539&#45;&gt;&#45;4946297265463859822 -->
<g id="edge24" class="edge"><title>879837430962634539&#45;&gt;&#45;4946297265463859822</title>
<path fill="none" stroke="black" d="M56.1728,-144.657C54.4761,-153.502 52.6803,-162.865 51.0725,-171.247"/>
<polygon fill="black" stroke="black" points="47.6046,-170.747 49.1581,-181.228 54.4792,-172.066 47.6046,-170.747"/>
</g>
<!-- 1640410166902513796 -->
<g id="node30" class="node"><title>1640410166902513796</title>
<polygon fill="none" stroke="black" points="267.513,-36 156.27,-36 156.27,-0 267.513,-0 267.513,-36"/>
<text text-anchor="middle" x="211.892" y="-13.8" font-family="Times,serif" font-size="14.00">array&#45;original&#45;#5</text>
</g>
<!-- 1640410166902513796&#45;&gt;879837430962634539 -->
<g id="edge25" class="edge"><title>1640410166902513796&#45;&gt;879837430962634539</title>
<path fill="none" stroke="black" d="M179.886,-36.0844C161.3,-46.1958 137.55,-59.4458 116.892,-72 111.849,-75.0641 106.603,-78.3709 101.448,-81.6917"/>
<polygon fill="black" stroke="black" points="99.3795,-78.862 92.9115,-87.2535 103.201,-84.727 99.3795,-78.862"/>
</g>
<!-- 7659426655884199712 -->
<g id="node31" class="node"><title>7659426655884199712</title>
<ellipse fill="none" stroke="black" cx="162.892" cy="-108.629" rx="36.7576" ry="36.7576"/>
<text text-anchor="middle" x="162.892" y="-104.429" font-family="Times,serif" font-size="14.00">getitem</text>
</g>
<!-- 1640410166902513796&#45;&gt;7659426655884199712 -->
<g id="edge27" class="edge"><title>1640410166902513796&#45;&gt;7659426655884199712</title>
<path fill="none" stroke="black" d="M202.444,-36.0885C197.534,-44.9699 191.306,-56.2334 185.254,-67.1799"/>
<polygon fill="black" stroke="black" points="182.02,-65.7961 180.245,-76.2411 188.146,-69.1831 182.02,-65.7961"/>
</g>
<!-- &#45;7114851789438444879 -->
<g id="node32" class="node"><title>&#45;7114851789438444879</title>
<ellipse fill="none" stroke="black" cx="261.892" cy="-108.629" rx="36.7576" ry="36.7576"/>
<text text-anchor="middle" x="261.892" y="-104.429" font-family="Times,serif" font-size="14.00">getitem</text>
</g>
<!-- 1640410166902513796&#45;&gt;&#45;7114851789438444879 -->
<g id="edge29" class="edge"><title>1640410166902513796&#45;&gt;&#45;7114851789438444879</title>
<path fill="none" stroke="black" d="M221.532,-36.0885C226.593,-45.0587 233.024,-56.4589 239.258,-67.5082"/>
<polygon fill="black" stroke="black" points="236.222,-69.2513 244.184,-76.2411 242.319,-65.8118 236.222,-69.2513"/>
</g>
<!-- &#45;8807301452602332154 -->
<g id="node33" class="node"><title>&#45;8807301452602332154</title>
<ellipse fill="none" stroke="black" cx="390.892" cy="-108.629" rx="36.7576" ry="36.7576"/>
<text text-anchor="middle" x="390.892" y="-104.429" font-family="Times,serif" font-size="14.00">getitem</text>
</g>
<!-- 1640410166902513796&#45;&gt;&#45;8807301452602332154 -->
<g id="edge31" class="edge"><title>1640410166902513796&#45;&gt;&#45;8807301452602332154</title>
<path fill="none" stroke="black" d="M246.405,-36.0885C275.682,-50.5848 317.777,-71.4273 348.985,-86.8793"/>
<polygon fill="black" stroke="black" points="347.78,-90.188 358.294,-91.4887 350.886,-83.9148 347.78,-90.188"/>
</g>
<!-- 7659426655884199712&#45;&gt;&#45;4946297265464942347 -->
<g id="edge26" class="edge"><title>7659426655884199712&#45;&gt;&#45;4946297265464942347</title>
<path fill="none" stroke="black" d="M160.085,-145.167C159.408,-153.739 158.695,-162.767 158.052,-170.899"/>
<polygon fill="black" stroke="black" points="154.556,-170.714 157.258,-180.958 161.534,-171.265 154.556,-170.714"/>
</g>
<!-- &#45;7114851789438444879&#45;&gt;&#45;4946297265466024872 -->
<g id="edge28" class="edge"><title>&#45;7114851789438444879&#45;&gt;&#45;4946297265466024872</title>
<path fill="none" stroke="black" d="M290.365,-131.765C307.254,-144.895 328.645,-161.526 345.809,-174.87"/>
<polygon fill="black" stroke="black" points="343.814,-177.752 353.857,-181.127 348.111,-172.226 343.814,-177.752"/>
</g>
<!-- &#45;8807301452602332154&#45;&gt;&#45;4946297265467107397 -->
<g id="edge30" class="edge"><title>&#45;8807301452602332154&#45;&gt;&#45;4946297265467107397</title>
<path fill="none" stroke="black" d="M417.354,-134.317C430.664,-146.733 446.735,-161.726 459.968,-174.072"/>
<polygon fill="black" stroke="black" points="457.69,-176.734 467.39,-180.996 462.465,-171.615 457.69,-176.734"/>
</g>
<!-- 852385827499166787 -->
<g id="node34" class="node"><title>852385827499166787</title>
<ellipse fill="none" stroke="black" cx="500.892" cy="-108.629" rx="36.7576" ry="36.7576"/>
<text text-anchor="middle" x="500.892" y="-104.429" font-family="Times,serif" font-size="14.00">getitem</text>
</g>
<!-- 852385827499166787&#45;&gt;1414470623466389914 -->
<g id="edge32" class="edge"><title>852385827499166787&#45;&gt;1414470623466389914</title>
<path fill="none" stroke="black" d="M469.97,-128.541C459.676,-134.374 447.999,-140.505 436.892,-145.257 436.186,-145.559 371.24,-165.669 321.603,-181.027"/>
<polygon fill="black" stroke="black" points="320.422,-177.728 311.903,-184.027 322.491,-184.415 320.422,-177.728"/>
</g>
<!-- 6809355017592185762 -->
<g id="node35" class="node"><title>6809355017592185762</title>
<polygon fill="none" stroke="black" points="706.513,-36 595.27,-36 595.27,-0 706.513,-0 706.513,-36"/>
<text text-anchor="middle" x="650.892" y="-13.8" font-family="Times,serif" font-size="14.00">array&#45;original&#45;#6</text>
</g>
<!-- 6809355017592185762&#45;&gt;852385827499166787 -->
<g id="edge33" class="edge"><title>6809355017592185762&#45;&gt;852385827499166787</title>
<path fill="none" stroke="black" d="M618.531,-36.0434C599.745,-46.1412 575.745,-59.3912 554.892,-72 549.843,-75.0529 544.592,-78.353 539.435,-81.6705"/>
<polygon fill="black" stroke="black" points="537.368,-78.84 530.897,-87.2292 541.187,-84.7063 537.368,-78.84"/>
</g>
<!-- 4652200555507478680 -->
<g id="node36" class="node"><title>4652200555507478680</title>
<ellipse fill="none" stroke="black" cx="600.892" cy="-108.629" rx="36.7576" ry="36.7576"/>
<text text-anchor="middle" x="600.892" y="-104.429" font-family="Times,serif" font-size="14.00">getitem</text>
</g>
<!-- 6809355017592185762&#45;&gt;4652200555507478680 -->
<g id="edge35" class="edge"><title>6809355017592185762&#45;&gt;4652200555507478680</title>
<path fill="none" stroke="black" d="M641.251,-36.0885C636.191,-45.0587 629.759,-56.4589 623.526,-67.5082"/>
<polygon fill="black" stroke="black" points="620.464,-65.8118 618.599,-76.2411 626.561,-69.2513 620.464,-65.8118"/>
</g>
<!-- 3558248221389067305 -->
<g id="node37" class="node"><title>3558248221389067305</title>
<ellipse fill="none" stroke="black" cx="700.892" cy="-108.629" rx="36.7576" ry="36.7576"/>
<text text-anchor="middle" x="700.892" y="-104.429" font-family="Times,serif" font-size="14.00">getitem</text>
</g>
<!-- 6809355017592185762&#45;&gt;3558248221389067305 -->
<g id="edge37" class="edge"><title>6809355017592185762&#45;&gt;3558248221389067305</title>
<path fill="none" stroke="black" d="M660.532,-36.0885C665.593,-45.0587 672.024,-56.4589 678.258,-67.5082"/>
<polygon fill="black" stroke="black" points="675.222,-69.2513 683.184,-76.2411 681.319,-65.8118 675.222,-69.2513"/>
</g>
<!-- &#45;3350706607324195938 -->
<g id="node38" class="node"><title>&#45;3350706607324195938</title>
<ellipse fill="none" stroke="black" cx="805.892" cy="-108.629" rx="36.7576" ry="36.7576"/>
<text text-anchor="middle" x="805.892" y="-104.429" font-family="Times,serif" font-size="14.00">getitem</text>
</g>
<!-- 6809355017592185762&#45;&gt;&#45;3350706607324195938 -->
<g id="edge39" class="edge"><title>6809355017592185762&#45;&gt;&#45;3350706607324195938</title>
<path fill="none" stroke="black" d="M682.628,-36.1192C701.416,-46.3533 725.626,-59.7151 746.892,-72 753.231,-75.6624 759.911,-79.6094 766.406,-83.4958"/>
<polygon fill="black" stroke="black" points="764.726,-86.5696 775.099,-88.7255 768.334,-80.5713 764.726,-86.5696"/>
</g>
<!-- 4652200555507478680&#45;&gt;1414470623465307389 -->
<g id="edge34" class="edge"><title>4652200555507478680&#45;&gt;1414470623465307389</title>
<path fill="none" stroke="black" d="M598.872,-145.422C598.39,-153.973 597.883,-162.965 597.426,-171.057"/>
<polygon fill="black" stroke="black" points="593.93,-170.882 596.862,-181.064 600.919,-171.277 593.93,-170.882"/>
</g>
<!-- 3558248221389067305&#45;&gt;1414470623464224864 -->
<g id="edge36" class="edge"><title>3558248221389067305&#45;&gt;1414470623464224864</title>
<path fill="none" stroke="black" d="M702.911,-145.422C703.393,-153.973 703.901,-162.965 704.357,-171.057"/>
<polygon fill="black" stroke="black" points="700.864,-171.277 704.922,-181.064 707.853,-170.882 700.864,-171.277"/>
</g>
<!-- &#45;3350706607324195938&#45;&gt;1414470623463142339 -->
<g id="edge38" class="edge"><title>&#45;3350706607324195938&#45;&gt;1414470623463142339</title>
<path fill="none" stroke="black" d="M809.901,-145.167C810.869,-153.739 811.887,-162.767 812.805,-170.899"/>
<polygon fill="black" stroke="black" points="809.341,-171.414 813.94,-180.958 816.296,-170.629 809.341,-171.414"/>
</g>
<!-- &#45;1451969551213032759&#45;&gt;&#45;725763993424842752 -->
<g id="edge40" class="edge"><title>&#45;1451969551213032759&#45;&gt;&#45;725763993424842752</title>
<path fill="none" stroke="black" d="M398.147,-616.729C401.78,-625.454 405.981,-635.542 409.776,-644.656"/>
<polygon fill="black" stroke="black" points="406.614,-646.167 413.689,-654.053 413.076,-643.476 406.614,-646.167"/>
</g>
<!-- &#45;6891673158522191627 -->
<g id="node40" class="node"><title>&#45;6891673158522191627</title>
<polygon fill="none" stroke="black" points="329.262,-374.955 242.522,-374.955 242.522,-338.955 329.262,-338.955 329.262,-374.955"/>
<text text-anchor="middle" x="285.892" y="-352.755" font-family="Times,serif" font-size="14.00">(&#39;sum&#45;#7&#39;, 0)</text>
</g>
<!-- &#45;6314803731527831884 -->
<g id="node48" class="node"><title>&#45;6314803731527831884</title>
<ellipse fill="none" stroke="black" cx="596.892" cy="-435.804" rx="24.6985" ry="24.6985"/>
<text text-anchor="middle" x="596.892" y="-431.604" font-family="Times,serif" font-size="14.00">sum</text>
</g>
<!-- &#45;6891673158522191627&#45;&gt;&#45;6314803731527831884 -->
<g id="edge57" class="edge"><title>&#45;6891673158522191627&#45;&gt;&#45;6314803731527831884</title>
<path fill="none" stroke="black" d="M329.153,-372.303C332.435,-373.246 335.708,-374.143 338.892,-374.955 421.325,-395.985 444.651,-389.184 526.892,-410.955 539.179,-414.207 552.431,-418.511 564.065,-422.566"/>
<polygon fill="black" stroke="black" points="563.212,-425.978 573.806,-426.033 565.559,-419.383 563.212,-425.978"/>
</g>
<!-- &#45;4251564039462656224&#45;&gt;&#45;6891673158522191627 -->
<g id="edge45" class="edge"><title>&#45;4251564039462656224&#45;&gt;&#45;6891673158522191627</title>
<path fill="none" stroke="black" d="M279.001,-303C280.065,-311.179 281.263,-320.388 282.359,-328.805"/>
<polygon fill="black" stroke="black" points="278.912,-329.441 283.673,-338.905 285.853,-328.537 278.912,-329.441"/>
</g>
<!-- &#45;6891673158521109102 -->
<g id="node42" class="node"><title>&#45;6891673158521109102</title>
<polygon fill="none" stroke="black" points="640.262,-374.955 553.522,-374.955 553.522,-338.955 640.262,-338.955 640.262,-374.955"/>
<text text-anchor="middle" x="596.892" y="-352.755" font-family="Times,serif" font-size="14.00">(&#39;sum&#45;#7&#39;, 1)</text>
</g>
<!-- &#45;6891673158521109102&#45;&gt;&#45;6314803731527831884 -->
<g id="edge55" class="edge"><title>&#45;6891673158521109102&#45;&gt;&#45;6314803731527831884</title>
<path fill="none" stroke="black" d="M596.892,-375.01C596.892,-382.574 596.892,-391.759 596.892,-400.636"/>
<polygon fill="black" stroke="black" points="593.392,-400.801 596.892,-410.801 600.392,-400.801 593.392,-400.801"/>
</g>
<!-- 3841208033517297451&#45;&gt;&#45;6891673158521109102 -->
<g id="edge47" class="edge"><title>3841208033517297451&#45;&gt;&#45;6891673158521109102</title>
<path fill="none" stroke="black" d="M596.203,-303C596.309,-311.179 596.429,-320.388 596.538,-328.805"/>
<polygon fill="black" stroke="black" points="593.04,-328.952 596.67,-338.905 600.039,-328.861 593.04,-328.952"/>
</g>
<!-- &#45;6891673158524356677 -->
<g id="node44" class="node"><title>&#45;6891673158524356677</title>
<polygon fill="none" stroke="black" points="747.262,-374.955 660.522,-374.955 660.522,-338.955 747.262,-338.955 747.262,-374.955"/>
<text text-anchor="middle" x="703.892" y="-352.755" font-family="Times,serif" font-size="14.00">(&#39;sum&#45;#7&#39;, 2)</text>
</g>
<!-- &#45;6891673158524356677&#45;&gt;&#45;6314803731527831884 -->
<g id="edge56" class="edge"><title>&#45;6891673158524356677&#45;&gt;&#45;6314803731527831884</title>
<path fill="none" stroke="black" d="M680.145,-375.01C663.892,-386.683 642.267,-402.215 625.13,-414.522"/>
<polygon fill="black" stroke="black" points="622.711,-411.951 616.63,-420.627 626.794,-417.636 622.711,-411.951"/>
</g>
<!-- &#45;2820273067194004474&#45;&gt;&#45;6891673158524356677 -->
<g id="edge49" class="edge"><title>&#45;2820273067194004474&#45;&gt;&#45;6891673158524356677</title>
<path fill="none" stroke="black" d="M704.581,-303C704.474,-311.179 704.354,-320.388 704.245,-328.805"/>
<polygon fill="black" stroke="black" points="700.744,-328.861 704.113,-338.905 707.743,-328.952 700.744,-328.861"/>
</g>
<!-- &#45;6891673158523274152 -->
<g id="node46" class="node"><title>&#45;6891673158523274152</title>
<polygon fill="none" stroke="black" points="855.262,-374.955 768.522,-374.955 768.522,-338.955 855.262,-338.955 855.262,-374.955"/>
<text text-anchor="middle" x="811.892" y="-352.755" font-family="Times,serif" font-size="14.00">(&#39;sum&#45;#7&#39;, 3)</text>
</g>
<!-- &#45;6891673158523274152&#45;&gt;&#45;6314803731527831884 -->
<g id="edge54" class="edge"><title>&#45;6891673158523274152&#45;&gt;&#45;6314803731527831884</title>
<path fill="none" stroke="black" d="M768.642,-373.414C727.73,-388.037 667.209,-409.67 630.006,-422.967"/>
<polygon fill="black" stroke="black" points="628.405,-419.823 620.167,-426.484 630.761,-426.414 628.405,-419.823"/>
</g>
<!-- &#45;5379013111555441999&#45;&gt;&#45;6891673158523274152 -->
<g id="edge51" class="edge"><title>&#45;5379013111555441999&#45;&gt;&#45;6891673158523274152</title>
<path fill="none" stroke="black" d="M813.27,-303C813.057,-311.179 812.817,-320.388 812.598,-328.805"/>
<polygon fill="black" stroke="black" points="809.097,-328.818 812.335,-338.905 816.094,-329 809.097,-328.818"/>
</g>
<!-- &#45;6314803731527831884&#45;&gt;9056936076598770745 -->
<g id="edge53" class="edge"><title>&#45;6314803731527831884&#45;&gt;9056936076598770745</title>
<path fill="none" stroke="black" d="M589.661,-459.777C580.803,-487.926 565.815,-535.549 556.407,-565.443"/>
<polygon fill="black" stroke="black" points="552.995,-564.626 553.332,-575.216 559.672,-566.728 552.995,-564.626"/>
</g>
</g>
</svg>
