<?xml version="1.0" encoding="UTF-8" standalone="no"?>
<!DOCTYPE svg PUBLIC "-//W3C//DTD SVG 1.1//EN"
 "http://www.w3.org/Graphics/SVG/1.1/DTD/svg11.dtd">
<!-- Generated by graphviz version 2.38.0 (20140413.2041)
 -->
<!-- Title: %3 Pages: 1 -->
<svg width="136pt" height="280pt"
 viewBox="0.00 0.00 135.88 279.50" xmlns="http://www.w3.org/2000/svg" xmlns:xlink="http://www.w3.org/1999/xlink">
<g id="graph0" class="graph" transform="scale(1 1) rotate(0) translate(4 275.502)">
<title>%3</title>
<polygon fill="white" stroke="none" points="-4,4 -4,-275.502 131.876,-275.502 131.876,4 -4,4"/>
<!-- 2179112365773950160 -->
<g id="node1" class="node"><title>2179112365773950160</title>
<polygon fill="none" stroke="black" points="127.814,-117.751 73.0619,-117.751 73.0619,-81.7509 127.814,-81.7509 127.814,-117.751"/>
<text text-anchor="middle" x="100.438" y="-95.5509" font-family="Times,serif" font-size="14.00">add&#45;#0</text>
</g>
<!-- 12789675186009884 -->
<g id="node6" class="node"><title>12789675186009884</title>
<ellipse fill="none" stroke="black" cx="63.438" cy="-176.626" rx="22.7515" ry="22.7515"/>
<text text-anchor="middle" x="63.438" y="-172.426" font-family="Times,serif" font-size="14.00">add</text>
</g>
<!-- 2179112365773950160&#45;&gt;12789675186009884 -->
<g id="edge4" class="edge"><title>2179112365773950160&#45;&gt;12789675186009884</title>
<path fill="none" stroke="black" d="M91.8564,-118.117C87.6936,-126.541 82.5794,-136.89 77.8425,-146.477"/>
<polygon fill="black" stroke="black" points="74.5728,-145.193 73.2804,-155.709 80.8484,-148.294 74.5728,-145.193"/>
</g>
<!-- 3941608583699432261 -->
<g id="node2" class="node"><title>3941608583699432261</title>
<ellipse fill="none" stroke="black" cx="100.438" cy="-22.8754" rx="22.7515" ry="22.7515"/>
<text text-anchor="middle" x="100.438" y="-18.6754" font-family="Times,serif" font-size="14.00">add</text>
</g>
<!-- 3941608583699432261&#45;&gt;2179112365773950160 -->
<g id="edge1" class="edge"><title>3941608583699432261&#45;&gt;2179112365773950160</title>
<path fill="none" stroke="black" d="M100.438,-45.9356C100.438,-53.943 100.438,-63.0863 100.438,-71.4895"/>
<polygon fill="black" stroke="black" points="96.9381,-71.5964 100.438,-81.5964 103.938,-71.5964 96.9381,-71.5964"/>
</g>
<!-- &#45;6194683892777131559 -->
<g id="node3" class="node"><title>&#45;6194683892777131559</title>
<polygon fill="none" stroke="black" points="54.8141,-117.751 0.0618719,-117.751 0.0618719,-81.7509 54.8141,-81.7509 54.8141,-117.751"/>
<text text-anchor="middle" x="27.438" y="-95.5509" font-family="Times,serif" font-size="14.00">add&#45;#1</text>
</g>
<!-- &#45;6194683892777131559&#45;&gt;12789675186009884 -->
<g id="edge5" class="edge"><title>&#45;6194683892777131559&#45;&gt;12789675186009884</title>
<path fill="none" stroke="black" d="M35.7876,-118.117C39.8379,-126.541 44.8139,-136.89 49.4228,-146.477"/>
<polygon fill="black" stroke="black" points="46.374,-148.213 53.8616,-155.709 52.6827,-145.179 46.374,-148.213"/>
</g>
<!-- 4973288602978732288 -->
<g id="node4" class="node"><title>4973288602978732288</title>
<ellipse fill="none" stroke="black" cx="27.438" cy="-22.8754" rx="22.7515" ry="22.7515"/>
<text text-anchor="middle" x="27.438" y="-18.6754" font-family="Times,serif" font-size="14.00">add</text>
</g>
<!-- 4973288602978732288&#45;&gt;&#45;6194683892777131559 -->
<g id="edge2" class="edge"><title>4973288602978732288&#45;&gt;&#45;6194683892777131559</title>
<path fill="none" stroke="black" d="M27.438,-45.9356C27.438,-53.943 27.438,-63.0863 27.438,-71.4895"/>
<polygon fill="black" stroke="black" points="23.9381,-71.5964 27.438,-81.5964 30.9381,-71.5964 23.9381,-71.5964"/>
</g>
<!-- 3236146897669170157 -->
<g id="node5" class="node"><title>3236146897669170157</title>
<polygon fill="none" stroke="black" points="90.8141,-271.502 36.0619,-271.502 36.0619,-235.502 90.8141,-235.502 90.8141,-271.502"/>
<text text-anchor="middle" x="63.438" y="-249.302" font-family="Times,serif" font-size="14.00">add&#45;#2</text>
</g>
<!-- 12789675186009884&#45;&gt;3236146897669170157 -->
<g id="edge3" class="edge"><title>12789675186009884&#45;&gt;3236146897669170157</title>
<path fill="none" stroke="black" d="M63.438,-199.686C63.438,-207.694 63.438,-216.837 63.438,-225.24"/>
<polygon fill="black" stroke="black" points="59.9381,-225.347 63.438,-235.347 66.9381,-225.347 59.9381,-225.347"/>
</g>
</g>
</svg>
