<?xml version="1.0" encoding="UTF-8" standalone="no"?>
<!DOCTYPE svg PUBLIC "-//W3C//DTD SVG 1.1//EN"
 "http://www.w3.org/Graphics/SVG/1.1/DTD/svg11.dtd">
<!-- Generated by graphviz version 2.38.0 (20140413.2041)
 -->
<!-- Title: %3 Pages: 1 -->
<svg width="773pt" height="799pt"
 viewBox="0.00 0.00 773.18 799.21" xmlns="http://www.w3.org/2000/svg" xmlns:xlink="http://www.w3.org/1999/xlink">
<g id="graph0" class="graph" transform="scale(1 1) rotate(0) translate(4 795.212)">
<title>%3</title>
<polygon fill="white" stroke="none" points="-4,4 -4,-795.212 769.18,-795.212 769.18,4 -4,4"/>
<!-- 8199587517743730950 -->
<g id="node1" class="node"><title>8199587517743730950</title>
<polygon fill="none" stroke="black" points="136.972,-637.461 39.4806,-637.461 39.4806,-601.461 136.972,-601.461 136.972,-637.461"/>
<text text-anchor="middle" x="88.2261" y="-615.261" font-family="Times,serif" font-size="14.00">(&#39;add&#45;#0&#39;, 0, 0)</text>
</g>
<!-- &#45;3268147779841152534 -->
<g id="node2" class="node"><title>&#45;3268147779841152534</title>
<ellipse fill="none" stroke="black" cx="88.2261" cy="-521.954" rx="22.7515" ry="22.7515"/>
<text text-anchor="middle" x="88.2261" y="-517.754" font-family="Times,serif" font-size="14.00">add</text>
</g>
<!-- &#45;3268147779841152534&#45;&gt;8199587517743730950 -->
<g id="edge1" class="edge"><title>&#45;3268147779841152534&#45;&gt;8199587517743730950</title>
<path fill="none" stroke="black" d="M88.2261,-545.105C88.2261,-558.718 88.2261,-576.271 88.2261,-590.794"/>
<polygon fill="black" stroke="black" points="84.7262,-591.193 88.2261,-601.193 91.7262,-591.193 84.7262,-591.193"/>
</g>
<!-- &#45;5545740097278035669 -->
<g id="node3" class="node"><title>&#45;5545740097278035669</title>
<polygon fill="none" stroke="black" points="199.133,-442.447 69.3188,-442.447 69.3188,-406.447 199.133,-406.447 199.133,-442.447"/>
<text text-anchor="middle" x="134.226" y="-420.247" font-family="Times,serif" font-size="14.00">(&#39;transpose&#45;#1&#39;, 0, 0)</text>
</g>
<!-- &#45;5545740097278035669&#45;&gt;&#45;3268147779841152534 -->
<g id="edge2" class="edge"><title>&#45;5545740097278035669&#45;&gt;&#45;3268147779841152534</title>
<path fill="none" stroke="black" d="M126.002,-442.521C119.392,-456.246 109.958,-475.834 102.171,-492.001"/>
<polygon fill="black" stroke="black" points="98.9966,-490.526 97.8106,-501.054 105.303,-493.563 98.9966,-490.526"/>
</g>
<!-- 17710950212401903 -->
<g id="node4" class="node"><title>17710950212401903</title>
<polygon fill="none" stroke="black" points="166.679,-203.223 -0.22669,-203.223 -0.22669,-167.223 166.679,-167.223 166.679,-203.223"/>
<text text-anchor="middle" x="83.2261" y="-181.023" font-family="Times,serif" font-size="14.00">(&#39;random_sample&#45;#2&#39;, 0, 0)</text>
</g>
<!-- 17710950212401903&#45;&gt;&#45;3268147779841152534 -->
<g id="edge3" class="edge"><title>17710950212401903&#45;&gt;&#45;3268147779841152534</title>
<path fill="none" stroke="black" d="M78.6125,-203.441C68.1737,-244.878 44.8096,-353.33 60.2261,-442.447 63.1121,-459.13 69.2086,-476.962 74.9783,-491.408"/>
<polygon fill="black" stroke="black" points="71.8142,-492.915 78.877,-500.812 78.2806,-490.234 71.8142,-492.915"/>
</g>
<!-- &#45;6537331255289344045 -->
<g id="node21" class="node"><title>&#45;6537331255289344045</title>
<ellipse fill="none" stroke="black" cx="124.226" cy="-304.835" rx="43.5146" ry="43.5146"/>
<text text-anchor="middle" x="124.226" y="-300.635" font-family="Times,serif" font-size="14.00">transpose</text>
</g>
<!-- 17710950212401903&#45;&gt;&#45;6537331255289344045 -->
<g id="edge18" class="edge"><title>17710950212401903&#45;&gt;&#45;6537331255289344045</title>
<path fill="none" stroke="black" d="M89.1878,-203.325C93.8164,-216.603 100.482,-235.724 106.76,-253.732"/>
<polygon fill="black" stroke="black" points="103.595,-255.287 110.192,-263.578 110.205,-252.983 103.595,-255.287"/>
</g>
<!-- 8199587517742565901 -->
<g id="node5" class="node"><title>8199587517742565901</title>
<polygon fill="none" stroke="black" points="375.972,-637.461 278.481,-637.461 278.481,-601.461 375.972,-601.461 375.972,-637.461"/>
<text text-anchor="middle" x="327.226" y="-615.261" font-family="Times,serif" font-size="14.00">(&#39;add&#45;#0&#39;, 0, 1)</text>
</g>
<!-- &#45;4678353581304521759 -->
<g id="node6" class="node"><title>&#45;4678353581304521759</title>
<ellipse fill="none" stroke="black" cx="327.226" cy="-521.954" rx="22.7515" ry="22.7515"/>
<text text-anchor="middle" x="327.226" y="-517.754" font-family="Times,serif" font-size="14.00">add</text>
</g>
<!-- &#45;4678353581304521759&#45;&gt;8199587517742565901 -->
<g id="edge4" class="edge"><title>&#45;4678353581304521759&#45;&gt;8199587517742565901</title>
<path fill="none" stroke="black" d="M327.226,-545.105C327.226,-558.718 327.226,-576.271 327.226,-590.794"/>
<polygon fill="black" stroke="black" points="323.726,-591.193 327.226,-601.193 330.726,-591.193 323.726,-591.193"/>
</g>
<!-- 17710950213566952 -->
<g id="node7" class="node"><title>17710950213566952</title>
<polygon fill="none" stroke="black" points="569.679,-442.447 402.773,-442.447 402.773,-406.447 569.679,-406.447 569.679,-442.447"/>
<text text-anchor="middle" x="486.226" y="-420.247" font-family="Times,serif" font-size="14.00">(&#39;random_sample&#45;#2&#39;, 0, 1)</text>
</g>
<!-- 17710950213566952&#45;&gt;&#45;4678353581304521759 -->
<g id="edge5" class="edge"><title>17710950213566952&#45;&gt;&#45;4678353581304521759</title>
<path fill="none" stroke="black" d="M457.8,-442.521C428.784,-459.951 384.025,-486.836 355.181,-504.162"/>
<polygon fill="black" stroke="black" points="353.185,-501.278 346.415,-509.428 356.79,-507.279 353.185,-501.278"/>
</g>
<!-- 8295397082614178270 -->
<g id="node23" class="node"><title>8295397082614178270</title>
<ellipse fill="none" stroke="black" cx="476.226" cy="-521.954" rx="43.5146" ry="43.5146"/>
<text text-anchor="middle" x="476.226" y="-517.754" font-family="Times,serif" font-size="14.00">transpose</text>
</g>
<!-- 17710950213566952&#45;&gt;8295397082614178270 -->
<g id="edge22" class="edge"><title>17710950213566952&#45;&gt;8295397082614178270</title>
<path fill="none" stroke="black" d="M484.438,-442.521C483.663,-449.929 482.708,-459.045 481.728,-468.409"/>
<polygon fill="black" stroke="black" points="478.221,-468.288 480.661,-478.598 485.183,-469.017 478.221,-468.288"/>
</g>
<!-- &#45;5545740097276870620 -->
<g id="node8" class="node"><title>&#45;5545740097276870620</title>
<polygon fill="none" stroke="black" points="385.133,-442.447 255.319,-442.447 255.319,-406.447 385.133,-406.447 385.133,-442.447"/>
<text text-anchor="middle" x="320.226" y="-420.247" font-family="Times,serif" font-size="14.00">(&#39;transpose&#45;#1&#39;, 0, 1)</text>
</g>
<!-- &#45;5545740097276870620&#45;&gt;&#45;4678353581304521759 -->
<g id="edge6" class="edge"><title>&#45;5545740097276870620&#45;&gt;&#45;4678353581304521759</title>
<path fill="none" stroke="black" d="M321.478,-442.521C322.417,-455.338 323.731,-473.268 324.866,-488.75"/>
<polygon fill="black" stroke="black" points="321.394,-489.267 325.616,-498.985 328.375,-488.755 321.394,-489.267"/>
</g>
<!-- 8199586256546732127 -->
<g id="node9" class="node"><title>8199586256546732127</title>
<polygon fill="none" stroke="black" points="398.972,-791.212 301.481,-791.212 301.481,-755.212 398.972,-755.212 398.972,-791.212"/>
<text text-anchor="middle" x="350.226" y="-769.012" font-family="Times,serif" font-size="14.00">(&#39;add&#45;#0&#39;, 1, 0)</text>
</g>
<!-- &#45;3144709499028140833 -->
<g id="node10" class="node"><title>&#45;3144709499028140833</title>
<ellipse fill="none" stroke="black" cx="350.226" cy="-696.337" rx="22.7515" ry="22.7515"/>
<text text-anchor="middle" x="350.226" y="-692.137" font-family="Times,serif" font-size="14.00">add</text>
</g>
<!-- &#45;3144709499028140833&#45;&gt;8199586256546732127 -->
<g id="edge7" class="edge"><title>&#45;3144709499028140833&#45;&gt;8199586256546732127</title>
<path fill="none" stroke="black" d="M350.226,-719.397C350.226,-727.404 350.226,-736.548 350.226,-744.951"/>
<polygon fill="black" stroke="black" points="346.726,-745.058 350.226,-755.058 353.726,-745.058 346.726,-745.058"/>
</g>
<!-- &#45;5545738836081036846 -->
<g id="node11" class="node"><title>&#45;5545738836081036846</title>
<polygon fill="none" stroke="black" points="538.133,-637.461 408.319,-637.461 408.319,-601.461 538.133,-601.461 538.133,-637.461"/>
<text text-anchor="middle" x="473.226" y="-615.261" font-family="Times,serif" font-size="14.00">(&#39;transpose&#45;#1&#39;, 1, 0)</text>
</g>
<!-- &#45;5545738836081036846&#45;&gt;&#45;3144709499028140833 -->
<g id="edge8" class="edge"><title>&#45;5545738836081036846&#45;&gt;&#45;3144709499028140833</title>
<path fill="none" stroke="black" d="M445.007,-637.639C424.957,-649.845 398.152,-666.162 378.164,-678.33"/>
<polygon fill="black" stroke="black" points="376.231,-675.409 369.509,-683.598 379.871,-681.388 376.231,-675.409"/>
</g>
<!-- 17712211409400726 -->
<g id="node12" class="node"><title>17712211409400726</title>
<polygon fill="none" stroke="black" points="392.679,-203.223 225.773,-203.223 225.773,-167.223 392.679,-167.223 392.679,-203.223"/>
<text text-anchor="middle" x="309.226" y="-181.023" font-family="Times,serif" font-size="14.00">(&#39;random_sample&#45;#2&#39;, 1, 0)</text>
</g>
<!-- 17712211409400726&#45;&gt;&#45;3144709499028140833 -->
<g id="edge9" class="edge"><title>17712211409400726&#45;&gt;&#45;3144709499028140833</title>
<path fill="none" stroke="black" d="M286.973,-203.285C276.274,-212.706 264.271,-225.308 257.226,-239.223 219.756,-313.234 227.226,-340.491 227.226,-423.447 227.226,-423.447 227.226,-423.447 227.226,-522.954 227.226,-577.161 236.378,-594.34 269.226,-637.461 282.923,-655.442 303.765,-670.156 320.877,-680.248"/>
<polygon fill="black" stroke="black" points="319.504,-683.492 329.931,-685.371 322.951,-677.4 319.504,-683.492"/>
</g>
<!-- &#45;5806528327666922020 -->
<g id="node22" class="node"><title>&#45;5806528327666922020</title>
<ellipse fill="none" stroke="black" cx="310.226" cy="-304.835" rx="43.5146" ry="43.5146"/>
<text text-anchor="middle" x="310.226" y="-300.635" font-family="Times,serif" font-size="14.00">transpose</text>
</g>
<!-- 17712211409400726&#45;&gt;&#45;5806528327666922020 -->
<g id="edge20" class="edge"><title>17712211409400726&#45;&gt;&#45;5806528327666922020</title>
<path fill="none" stroke="black" d="M309.371,-203.325C309.479,-216 309.632,-234.001 309.779,-251.275"/>
<polygon fill="black" stroke="black" points="306.28,-251.346 309.865,-261.316 313.279,-251.287 306.28,-251.346"/>
</g>
<!-- 8199586256547897176 -->
<g id="node13" class="node"><title>8199586256547897176</title>
<polygon fill="none" stroke="black" points="660.972,-637.461 563.481,-637.461 563.481,-601.461 660.972,-601.461 660.972,-637.461"/>
<text text-anchor="middle" x="612.226" y="-615.261" font-family="Times,serif" font-size="14.00">(&#39;add&#45;#0&#39;, 1, 1)</text>
</g>
<!-- &#45;3009333447399286408 -->
<g id="node14" class="node"><title>&#45;3009333447399286408</title>
<ellipse fill="none" stroke="black" cx="612.226" cy="-521.954" rx="22.7515" ry="22.7515"/>
<text text-anchor="middle" x="612.226" y="-517.754" font-family="Times,serif" font-size="14.00">add</text>
</g>
<!-- &#45;3009333447399286408&#45;&gt;8199586256547897176 -->
<g id="edge10" class="edge"><title>&#45;3009333447399286408&#45;&gt;8199586256547897176</title>
<path fill="none" stroke="black" d="M612.226,-545.105C612.226,-558.718 612.226,-576.271 612.226,-590.794"/>
<polygon fill="black" stroke="black" points="608.726,-591.193 612.226,-601.193 615.726,-591.193 608.726,-591.193"/>
</g>
<!-- &#45;5545738836082201895 -->
<g id="node15" class="node"><title>&#45;5545738836082201895</title>
<polygon fill="none" stroke="black" points="765.133,-442.447 635.319,-442.447 635.319,-406.447 765.133,-406.447 765.133,-442.447"/>
<text text-anchor="middle" x="700.226" y="-420.247" font-family="Times,serif" font-size="14.00">(&#39;transpose&#45;#1&#39;, 1, 1)</text>
</g>
<!-- &#45;5545738836082201895&#45;&gt;&#45;3009333447399286408 -->
<g id="edge11" class="edge"><title>&#45;5545738836082201895&#45;&gt;&#45;3009333447399286408</title>
<path fill="none" stroke="black" d="M684.493,-442.521C670.432,-457.783 649.69,-480.294 634.03,-497.29"/>
<polygon fill="black" stroke="black" points="631.437,-494.939 627.235,-504.664 636.585,-499.682 631.437,-494.939"/>
</g>
<!-- 17712211408235677 -->
<g id="node16" class="node"><title>17712211408235677</title>
<polygon fill="none" stroke="black" points="726.679,-203.223 559.773,-203.223 559.773,-167.223 726.679,-167.223 726.679,-203.223"/>
<text text-anchor="middle" x="643.226" y="-181.023" font-family="Times,serif" font-size="14.00">(&#39;random_sample&#45;#2&#39;, 1, 1)</text>
</g>
<!-- 17712211408235677&#45;&gt;&#45;3009333447399286408 -->
<g id="edge12" class="edge"><title>17712211408235677&#45;&gt;&#45;3009333447399286408</title>
<path fill="none" stroke="black" d="M640.755,-203.385C639.313,-213.748 637.528,-227.228 636.226,-239.223 626.411,-329.623 618.234,-436.707 614.464,-488.998"/>
<polygon fill="black" stroke="black" points="610.971,-488.778 613.748,-499.002 617.953,-489.278 610.971,-488.778"/>
</g>
<!-- &#45;2807396680098573355 -->
<g id="node24" class="node"><title>&#45;2807396680098573355</title>
<ellipse fill="none" stroke="black" cx="689.226" cy="-304.835" rx="43.5146" ry="43.5146"/>
<text text-anchor="middle" x="689.226" y="-300.635" font-family="Times,serif" font-size="14.00">transpose</text>
</g>
<!-- 17712211408235677&#45;&gt;&#45;2807396680098573355 -->
<g id="edge24" class="edge"><title>17712211408235677&#45;&gt;&#45;2807396680098573355</title>
<path fill="none" stroke="black" d="M649.915,-203.325C655.177,-216.78 662.787,-236.235 669.912,-254.452"/>
<polygon fill="black" stroke="black" points="666.676,-255.789 673.578,-263.827 673.195,-253.239 666.676,-255.789"/>
</g>
<!-- 7272618058055159023 -->
<g id="node17" class="node"><title>7272618058055159023</title>
<ellipse fill="none" stroke="black" cx="83.2261" cy="-65.6117" rx="65.7235" ry="65.7235"/>
<text text-anchor="middle" x="83.2261" y="-61.4117" font-family="Times,serif" font-size="14.00">_apply_random</text>
</g>
<!-- 7272618058055159023&#45;&gt;17710950212401903 -->
<g id="edge13" class="edge"><title>7272618058055159023&#45;&gt;17710950212401903</title>
<path fill="none" stroke="black" d="M83.2261,-131.266C83.2261,-140.264 83.2261,-149.077 83.2261,-156.852"/>
<polygon fill="black" stroke="black" points="79.7262,-157.063 83.2261,-167.063 86.7262,-157.063 79.7262,-157.063"/>
</g>
<!-- 4524574478328493448 -->
<g id="node18" class="node"><title>4524574478328493448</title>
<ellipse fill="none" stroke="black" cx="486.226" cy="-304.835" rx="65.7235" ry="65.7235"/>
<text text-anchor="middle" x="486.226" y="-300.635" font-family="Times,serif" font-size="14.00">_apply_random</text>
</g>
<!-- 4524574478328493448&#45;&gt;17710950213566952 -->
<g id="edge14" class="edge"><title>4524574478328493448&#45;&gt;17710950213566952</title>
<path fill="none" stroke="black" d="M486.226,-370.49C486.226,-379.487 486.226,-388.3 486.226,-396.075"/>
<polygon fill="black" stroke="black" points="482.726,-396.286 486.226,-406.286 489.726,-396.286 482.726,-396.286"/>
</g>
<!-- &#45;7239759758053116422 -->
<g id="node19" class="node"><title>&#45;7239759758053116422</title>
<ellipse fill="none" stroke="black" cx="309.226" cy="-65.6117" rx="65.7235" ry="65.7235"/>
<text text-anchor="middle" x="309.226" y="-61.4117" font-family="Times,serif" font-size="14.00">_apply_random</text>
</g>
<!-- &#45;7239759758053116422&#45;&gt;17712211409400726 -->
<g id="edge15" class="edge"><title>&#45;7239759758053116422&#45;&gt;17712211409400726</title>
<path fill="none" stroke="black" d="M309.226,-131.266C309.226,-140.264 309.226,-149.077 309.226,-156.852"/>
<polygon fill="black" stroke="black" points="305.726,-157.063 309.226,-167.063 312.726,-157.063 305.726,-157.063"/>
</g>
<!-- &#45;3883208692485573647 -->
<g id="node20" class="node"><title>&#45;3883208692485573647</title>
<ellipse fill="none" stroke="black" cx="643.226" cy="-65.6117" rx="65.7235" ry="65.7235"/>
<text text-anchor="middle" x="643.226" y="-61.4117" font-family="Times,serif" font-size="14.00">_apply_random</text>
</g>
<!-- &#45;3883208692485573647&#45;&gt;17712211408235677 -->
<g id="edge16" class="edge"><title>&#45;3883208692485573647&#45;&gt;17712211408235677</title>
<path fill="none" stroke="black" d="M643.226,-131.266C643.226,-140.264 643.226,-149.077 643.226,-156.852"/>
<polygon fill="black" stroke="black" points="639.726,-157.063 643.226,-167.063 646.726,-157.063 639.726,-157.063"/>
</g>
<!-- &#45;6537331255289344045&#45;&gt;&#45;5545740097278035669 -->
<g id="edge17" class="edge"><title>&#45;6537331255289344045&#45;&gt;&#45;5545740097278035669</title>
<path fill="none" stroke="black" d="M127.836,-348.295C129.192,-364.235 130.695,-381.915 131.903,-396.12"/>
<polygon fill="black" stroke="black" points="128.427,-396.551 132.761,-406.219 135.401,-395.958 128.427,-396.551"/>
</g>
<!-- &#45;5806528327666922020&#45;&gt;&#45;5545740097276870620 -->
<g id="edge19" class="edge"><title>&#45;5806528327666922020&#45;&gt;&#45;5545740097276870620</title>
<path fill="none" stroke="black" d="M313.836,-348.295C315.192,-364.235 316.695,-381.915 317.903,-396.12"/>
<polygon fill="black" stroke="black" points="314.427,-396.551 318.761,-406.219 321.401,-395.958 314.427,-396.551"/>
</g>
<!-- 8295397082614178270&#45;&gt;&#45;5545738836081036846 -->
<g id="edge21" class="edge"><title>8295397082614178270&#45;&gt;&#45;5545738836081036846</title>
<path fill="none" stroke="black" d="M474.884,-565.679C474.614,-574.284 474.337,-583.109 474.088,-591.02"/>
<polygon fill="black" stroke="black" points="470.586,-591.029 473.77,-601.134 477.583,-591.249 470.586,-591.029"/>
</g>
<!-- &#45;2807396680098573355&#45;&gt;&#45;5545738836082201895 -->
<g id="edge23" class="edge"><title>&#45;2807396680098573355&#45;&gt;&#45;5545738836082201895</title>
<path fill="none" stroke="black" d="M693.197,-348.295C694.688,-364.235 696.342,-381.915 697.67,-396.12"/>
<polygon fill="black" stroke="black" points="694.199,-396.588 698.615,-406.219 701.168,-395.936 694.199,-396.588"/>
</g>
</g>
</svg>
