<?xml version="1.0" encoding="UTF-8" standalone="no"?>
<!DOCTYPE svg PUBLIC "-//W3C//DTD SVG 1.1//EN"
 "http://www.w3.org/Graphics/SVG/1.1/DTD/svg11.dtd">
<!-- Generated by graphviz version 2.38.0 (20140413.2041)
 -->
<!-- Title: %3 Pages: 1 -->
<svg width="282pt" height="458pt"
 viewBox="0.00 0.00 281.88 457.81" xmlns="http://www.w3.org/2000/svg" xmlns:xlink="http://www.w3.org/1999/xlink">
<g id="graph0" class="graph" transform="scale(1 1) rotate(0) translate(4 453.814)">
<title>%3</title>
<polygon fill="white" stroke="none" points="-4,4 -4,-453.814 277.876,-453.814 277.876,4 -4,4"/>
<!-- &#45;2125423078653576322 -->
<g id="node1" class="node"><title>&#45;2125423078653576322</title>
<polygon fill="none" stroke="black" points="273.814,-117.751 219.062,-117.751 219.062,-81.7509 273.814,-81.7509 273.814,-117.751"/>
<text text-anchor="middle" x="246.438" y="-95.5509" font-family="Times,serif" font-size="14.00">add&#45;#0</text>
</g>
<!-- 5583945175256262062 -->
<g id="node6" class="node"><title>5583945175256262062</title>
<ellipse fill="none" stroke="black" cx="173.438" cy="-176.626" rx="22.7515" ry="22.7515"/>
<text text-anchor="middle" x="173.438" y="-172.426" font-family="Times,serif" font-size="14.00">add</text>
</g>
<!-- &#45;2125423078653576322&#45;&gt;5583945175256262062 -->
<g id="edge5" class="edge"><title>&#45;2125423078653576322&#45;&gt;5583945175256262062</title>
<path fill="none" stroke="black" d="M229.507,-118.117C219.651,-128.226 207.092,-141.107 196.36,-152.115"/>
<polygon fill="black" stroke="black" points="193.753,-149.776 189.278,-159.379 198.765,-154.663 193.753,-149.776"/>
</g>
<!-- 8449277975554815998 -->
<g id="node2" class="node"><title>8449277975554815998</title>
<ellipse fill="none" stroke="black" cx="246.438" cy="-22.8754" rx="22.7515" ry="22.7515"/>
<text text-anchor="middle" x="246.438" y="-18.6754" font-family="Times,serif" font-size="14.00">add</text>
</g>
<!-- 8449277975554815998&#45;&gt;&#45;2125423078653576322 -->
<g id="edge1" class="edge"><title>8449277975554815998&#45;&gt;&#45;2125423078653576322</title>
<path fill="none" stroke="black" d="M246.438,-45.9356C246.438,-53.943 246.438,-63.0863 246.438,-71.4895"/>
<polygon fill="black" stroke="black" points="242.938,-71.5964 246.438,-81.5964 249.938,-71.5964 242.938,-71.5964"/>
</g>
<!-- 6675695031605513836 -->
<g id="node3" class="node"><title>6675695031605513836</title>
<polygon fill="none" stroke="black" points="200.814,-117.751 146.062,-117.751 146.062,-81.7509 200.814,-81.7509 200.814,-117.751"/>
<text text-anchor="middle" x="173.438" y="-95.5509" font-family="Times,serif" font-size="14.00">add&#45;#1</text>
</g>
<!-- 6675695031605513836&#45;&gt;5583945175256262062 -->
<g id="edge4" class="edge"><title>6675695031605513836&#45;&gt;5583945175256262062</title>
<path fill="none" stroke="black" d="M173.438,-118.117C173.438,-125.611 173.438,-134.629 173.438,-143.277"/>
<polygon fill="black" stroke="black" points="169.938,-143.516 173.438,-153.516 176.938,-143.516 169.938,-143.516"/>
</g>
<!-- &#45;3588215624662280568 -->
<g id="node4" class="node"><title>&#45;3588215624662280568</title>
<ellipse fill="none" stroke="black" cx="173.438" cy="-22.8754" rx="22.7515" ry="22.7515"/>
<text text-anchor="middle" x="173.438" y="-18.6754" font-family="Times,serif" font-size="14.00">add</text>
</g>
<!-- &#45;3588215624662280568&#45;&gt;6675695031605513836 -->
<g id="edge2" class="edge"><title>&#45;3588215624662280568&#45;&gt;6675695031605513836</title>
<path fill="none" stroke="black" d="M173.438,-45.9356C173.438,-53.943 173.438,-63.0863 173.438,-71.4895"/>
<polygon fill="black" stroke="black" points="169.938,-71.5964 173.438,-81.5964 176.938,-71.5964 169.938,-71.5964"/>
</g>
<!-- 3026640171194112430 -->
<g id="node5" class="node"><title>3026640171194112430</title>
<polygon fill="none" stroke="black" points="200.814,-271.502 146.062,-271.502 146.062,-235.502 200.814,-235.502 200.814,-271.502"/>
<text text-anchor="middle" x="173.438" y="-249.302" font-family="Times,serif" font-size="14.00">add&#45;#2</text>
</g>
<!-- 8084226070998415792 -->
<g id="node14" class="node"><title>8084226070998415792</title>
<ellipse fill="none" stroke="black" cx="136.438" cy="-342.658" rx="35.3129" ry="35.3129"/>
<text text-anchor="middle" x="136.438" y="-338.458" font-family="Times,serif" font-size="14.00">truediv</text>
</g>
<!-- 3026640171194112430&#45;&gt;8084226070998415792 -->
<g id="edge13" class="edge"><title>3026640171194112430&#45;&gt;8084226070998415792</title>
<path fill="none" stroke="black" d="M166.128,-271.721C162.581,-280.077 158.154,-290.504 153.811,-300.736"/>
<polygon fill="black" stroke="black" points="150.559,-299.439 149.873,-310.011 157.002,-302.174 150.559,-299.439"/>
</g>
<!-- 5583945175256262062&#45;&gt;3026640171194112430 -->
<g id="edge3" class="edge"><title>5583945175256262062&#45;&gt;3026640171194112430</title>
<path fill="none" stroke="black" d="M173.438,-199.686C173.438,-207.694 173.438,-216.837 173.438,-225.24"/>
<polygon fill="black" stroke="black" points="169.938,-225.347 173.438,-235.347 176.938,-225.347 169.938,-225.347"/>
</g>
<!-- &#45;4018499498941525873 -->
<g id="node7" class="node"><title>&#45;4018499498941525873</title>
<polygon fill="none" stroke="black" points="54.8141,-117.751 0.0618719,-117.751 0.0618719,-81.7509 54.8141,-81.7509 54.8141,-117.751"/>
<text text-anchor="middle" x="27.438" y="-95.5509" font-family="Times,serif" font-size="14.00">add&#45;#3</text>
</g>
<!-- &#45;8699408040147534762 -->
<g id="node12" class="node"><title>&#45;8699408040147534762</title>
<ellipse fill="none" stroke="black" cx="100.438" cy="-176.626" rx="22.7515" ry="22.7515"/>
<text text-anchor="middle" x="100.438" y="-172.426" font-family="Times,serif" font-size="14.00">add</text>
</g>
<!-- &#45;4018499498941525873&#45;&gt;&#45;8699408040147534762 -->
<g id="edge10" class="edge"><title>&#45;4018499498941525873&#45;&gt;&#45;8699408040147534762</title>
<path fill="none" stroke="black" d="M44.3691,-118.117C54.225,-128.226 66.7835,-141.107 77.5156,-152.115"/>
<polygon fill="black" stroke="black" points="75.1111,-154.663 84.5981,-159.379 80.1233,-149.776 75.1111,-154.663"/>
</g>
<!-- 6701656067714014595 -->
<g id="node8" class="node"><title>6701656067714014595</title>
<ellipse fill="none" stroke="black" cx="27.438" cy="-22.8754" rx="22.7515" ry="22.7515"/>
<text text-anchor="middle" x="27.438" y="-18.6754" font-family="Times,serif" font-size="14.00">add</text>
</g>
<!-- 6701656067714014595&#45;&gt;&#45;4018499498941525873 -->
<g id="edge6" class="edge"><title>6701656067714014595&#45;&gt;&#45;4018499498941525873</title>
<path fill="none" stroke="black" d="M27.438,-45.9356C27.438,-53.943 27.438,-63.0863 27.438,-71.4895"/>
<polygon fill="black" stroke="black" points="23.9381,-71.5964 27.438,-81.5964 30.9381,-71.5964 23.9381,-71.5964"/>
</g>
<!-- 1375285928069384421 -->
<g id="node9" class="node"><title>1375285928069384421</title>
<polygon fill="none" stroke="black" points="127.814,-117.751 73.0619,-117.751 73.0619,-81.7509 127.814,-81.7509 127.814,-117.751"/>
<text text-anchor="middle" x="100.438" y="-95.5509" font-family="Times,serif" font-size="14.00">add&#45;#4</text>
</g>
<!-- 1375285928069384421&#45;&gt;&#45;8699408040147534762 -->
<g id="edge9" class="edge"><title>1375285928069384421&#45;&gt;&#45;8699408040147534762</title>
<path fill="none" stroke="black" d="M100.438,-118.117C100.438,-125.611 100.438,-134.629 100.438,-143.277"/>
<polygon fill="black" stroke="black" points="96.9381,-143.516 100.438,-153.516 103.938,-143.516 96.9381,-143.516"/>
</g>
<!-- 122864639246353517 -->
<g id="node10" class="node"><title>122864639246353517</title>
<ellipse fill="none" stroke="black" cx="100.438" cy="-22.8754" rx="22.7515" ry="22.7515"/>
<text text-anchor="middle" x="100.438" y="-18.6754" font-family="Times,serif" font-size="14.00">add</text>
</g>
<!-- 122864639246353517&#45;&gt;1375285928069384421 -->
<g id="edge7" class="edge"><title>122864639246353517&#45;&gt;1375285928069384421</title>
<path fill="none" stroke="black" d="M100.438,-45.9356C100.438,-53.943 100.438,-63.0863 100.438,-71.4895"/>
<polygon fill="black" stroke="black" points="96.9381,-71.5964 100.438,-81.5964 103.938,-71.5964 96.9381,-71.5964"/>
</g>
<!-- 5683642100256984934 -->
<g id="node11" class="node"><title>5683642100256984934</title>
<polygon fill="none" stroke="black" points="127.814,-271.502 73.0619,-271.502 73.0619,-235.502 127.814,-235.502 127.814,-271.502"/>
<text text-anchor="middle" x="100.438" y="-249.302" font-family="Times,serif" font-size="14.00">add&#45;#5</text>
</g>
<!-- 5683642100256984934&#45;&gt;8084226070998415792 -->
<g id="edge12" class="edge"><title>5683642100256984934&#45;&gt;8084226070998415792</title>
<path fill="none" stroke="black" d="M107.55,-271.721C111.002,-280.077 115.309,-290.504 119.535,-300.736"/>
<polygon fill="black" stroke="black" points="116.314,-302.105 123.366,-310.011 122.784,-299.433 116.314,-302.105"/>
</g>
<!-- &#45;8699408040147534762&#45;&gt;5683642100256984934 -->
<g id="edge8" class="edge"><title>&#45;8699408040147534762&#45;&gt;5683642100256984934</title>
<path fill="none" stroke="black" d="M100.438,-199.686C100.438,-207.694 100.438,-216.837 100.438,-225.24"/>
<polygon fill="black" stroke="black" points="96.9381,-225.347 100.438,-235.347 103.938,-225.347 96.9381,-225.347"/>
</g>
<!-- &#45;5225916728579897852 -->
<g id="node13" class="node"><title>&#45;5225916728579897852</title>
<polygon fill="none" stroke="black" points="173.756,-449.814 99.1199,-449.814 99.1199,-413.814 173.756,-413.814 173.756,-449.814"/>
<text text-anchor="middle" x="136.438" y="-427.614" font-family="Times,serif" font-size="14.00">truediv&#45;#6</text>
</g>
<!-- 8084226070998415792&#45;&gt;&#45;5225916728579897852 -->
<g id="edge11" class="edge"><title>8084226070998415792&#45;&gt;&#45;5225916728579897852</title>
<path fill="none" stroke="black" d="M136.438,-377.854C136.438,-386.343 136.438,-395.33 136.438,-403.444"/>
<polygon fill="black" stroke="black" points="132.938,-403.49 136.438,-413.491 139.938,-403.491 132.938,-403.49"/>
</g>
</g>
</svg>
