<?xml version="1.0" encoding="UTF-8" standalone="no"?>
<!DOCTYPE svg PUBLIC "-//W3C//DTD SVG 1.1//EN"
 "http://www.w3.org/Graphics/SVG/1.1/DTD/svg11.dtd">
<!-- Generated by graphviz version 2.38.0 (20140413.2041)
 -->
<!-- Title: %3 Pages: 1 -->
<svg width="63pt" height="433pt"
 viewBox="0.00 0.00 62.88 433.25" xmlns="http://www.w3.org/2000/svg" xmlns:xlink="http://www.w3.org/1999/xlink">
<g id="graph0" class="graph" transform="scale(1 1) rotate(0) translate(4 429.253)">
<title>%3</title>
<polygon fill="white" stroke="none" points="-4,4 -4,-429.253 58.876,-429.253 58.876,4 -4,4"/>
<!-- 7097171468176555420 -->
<g id="node1" class="node"><title>7097171468176555420</title>
<polygon fill="none" stroke="black" points="54.8141,-117.751 0.0618719,-117.751 0.0618719,-81.7509 54.8141,-81.7509 54.8141,-117.751"/>
<text text-anchor="middle" x="27.438" y="-95.5509" font-family="Times,serif" font-size="14.00">add&#45;#0</text>
</g>
<!-- &#45;5249659453893501950 -->
<g id="node4" class="node"><title>&#45;5249659453893501950</title>
<ellipse fill="none" stroke="black" cx="27.438" cy="-176.626" rx="22.7515" ry="22.7515"/>
<text text-anchor="middle" x="27.438" y="-172.426" font-family="Times,serif" font-size="14.00">add</text>
</g>
<!-- 7097171468176555420&#45;&gt;&#45;5249659453893501950 -->
<g id="edge3" class="edge"><title>7097171468176555420&#45;&gt;&#45;5249659453893501950</title>
<path fill="none" stroke="black" d="M27.438,-118.117C27.438,-125.611 27.438,-134.629 27.438,-143.277"/>
<polygon fill="black" stroke="black" points="23.9381,-143.516 27.438,-153.516 30.9381,-143.516 23.9381,-143.516"/>
</g>
<!-- 5867832155334885274 -->
<g id="node2" class="node"><title>5867832155334885274</title>
<ellipse fill="none" stroke="black" cx="27.438" cy="-22.8754" rx="22.7515" ry="22.7515"/>
<text text-anchor="middle" x="27.438" y="-18.6754" font-family="Times,serif" font-size="14.00">add</text>
</g>
<!-- 5867832155334885274&#45;&gt;7097171468176555420 -->
<g id="edge1" class="edge"><title>5867832155334885274&#45;&gt;7097171468176555420</title>
<path fill="none" stroke="black" d="M27.438,-45.9356C27.438,-53.943 27.438,-63.0863 27.438,-71.4895"/>
<polygon fill="black" stroke="black" points="23.9381,-71.5964 27.438,-81.5964 30.9381,-71.5964 23.9381,-71.5964"/>
</g>
<!-- &#45;6438666037221318460 -->
<g id="node3" class="node"><title>&#45;6438666037221318460</title>
<polygon fill="none" stroke="black" points="54.8141,-271.502 0.0618719,-271.502 0.0618719,-235.502 54.8141,-235.502 54.8141,-271.502"/>
<text text-anchor="middle" x="27.438" y="-249.302" font-family="Times,serif" font-size="14.00">add&#45;#1</text>
</g>
<!-- &#45;4954709574106842935 -->
<g id="node6" class="node"><title>&#45;4954709574106842935</title>
<ellipse fill="none" stroke="black" cx="27.438" cy="-330.377" rx="22.7515" ry="22.7515"/>
<text text-anchor="middle" x="27.438" y="-326.177" font-family="Times,serif" font-size="14.00">add</text>
</g>
<!-- &#45;6438666037221318460&#45;&gt;&#45;4954709574106842935 -->
<g id="edge5" class="edge"><title>&#45;6438666037221318460&#45;&gt;&#45;4954709574106842935</title>
<path fill="none" stroke="black" d="M27.438,-271.868C27.438,-279.362 27.438,-288.379 27.438,-297.028"/>
<polygon fill="black" stroke="black" points="23.9381,-297.267 27.438,-307.267 30.9381,-297.267 23.9381,-297.267"/>
</g>
<!-- &#45;5249659453893501950&#45;&gt;&#45;6438666037221318460 -->
<g id="edge2" class="edge"><title>&#45;5249659453893501950&#45;&gt;&#45;6438666037221318460</title>
<path fill="none" stroke="black" d="M27.438,-199.686C27.438,-207.694 27.438,-216.837 27.438,-225.24"/>
<polygon fill="black" stroke="black" points="23.9381,-225.347 27.438,-235.347 30.9381,-225.347 23.9381,-225.347"/>
</g>
<!-- &#45;3424598179425055245 -->
<g id="node5" class="node"><title>&#45;3424598179425055245</title>
<polygon fill="none" stroke="black" points="54.8141,-425.253 0.0618719,-425.253 0.0618719,-389.253 54.8141,-389.253 54.8141,-425.253"/>
<text text-anchor="middle" x="27.438" y="-403.053" font-family="Times,serif" font-size="14.00">add&#45;#2</text>
</g>
<!-- &#45;4954709574106842935&#45;&gt;&#45;3424598179425055245 -->
<g id="edge4" class="edge"><title>&#45;4954709574106842935&#45;&gt;&#45;3424598179425055245</title>
<path fill="none" stroke="black" d="M27.438,-353.437C27.438,-361.445 27.438,-370.588 27.438,-378.991"/>
<polygon fill="black" stroke="black" points="23.9381,-379.098 27.438,-389.098 30.9381,-379.098 23.9381,-379.098"/>
</g>
</g>
</svg>
