<?xml version="1.0" encoding="UTF-8" standalone="no"?>
<!DOCTYPE svg PUBLIC "-//W3C//DTD SVG 1.1//EN"
 "http://www.w3.org/Graphics/SVG/1.1/DTD/svg11.dtd">
<!-- Generated by graphviz version 2.38.0 (20140413.2041)
 -->
<!-- Title: %3 Pages: 1 -->
<svg width="357pt" height="614pt"
 viewBox="0.00 0.00 356.66 613.54" xmlns="http://www.w3.org/2000/svg" xmlns:xlink="http://www.w3.org/1999/xlink">
<g id="graph0" class="graph" transform="scale(1 1) rotate(0) translate(4 609.543)">
<title>%3</title>
<polygon fill="white" stroke="none" points="-4,4 -4,-609.543 352.659,-609.543 352.659,4 -4,4"/>
<!-- 3666945096786730065 -->
<g id="node1" class="node"><title>3666945096786730065</title>
<polygon fill="none" stroke="black" points="348.881,-119.729 291.995,-119.729 291.995,-83.7286 348.881,-83.7286 348.881,-119.729"/>
<text text-anchor="middle" x="320.438" y="-97.5286" font-family="Times,serif" font-size="14.00">mul&#45;#0</text>
</g>
<!-- &#45;6857805133517970866 -->
<g id="node6" class="node"><title>&#45;6857805133517970866</title>
<ellipse fill="none" stroke="black" cx="246.438" cy="-178.604" rx="22.7515" ry="22.7515"/>
<text text-anchor="middle" x="246.438" y="-174.404" font-family="Times,serif" font-size="14.00">add</text>
</g>
<!-- 3666945096786730065&#45;&gt;&#45;6857805133517970866 -->
<g id="edge4" class="edge"><title>3666945096786730065&#45;&gt;&#45;6857805133517970866</title>
<path fill="none" stroke="black" d="M303.275,-120.095C293.284,-130.204 280.553,-143.085 269.674,-154.093"/>
<polygon fill="black" stroke="black" points="267.035,-151.784 262.495,-161.357 272.014,-156.705 267.035,-151.784"/>
</g>
<!-- 2953930727293587531 -->
<g id="node2" class="node"><title>2953930727293587531</title>
<ellipse fill="none" stroke="black" cx="320.438" cy="-23.8643" rx="23.7293" ry="23.7293"/>
<text text-anchor="middle" x="320.438" y="-19.6643" font-family="Times,serif" font-size="14.00">mul</text>
</g>
<!-- 2953930727293587531&#45;&gt;3666945096786730065 -->
<g id="edge1" class="edge"><title>2953930727293587531&#45;&gt;3666945096786730065</title>
<path fill="none" stroke="black" d="M320.438,-48.0383C320.438,-56.1269 320.438,-65.2761 320.438,-73.6538"/>
<polygon fill="black" stroke="black" points="316.938,-73.7149 320.438,-83.7149 323.938,-73.715 316.938,-73.7149"/>
</g>
<!-- 5146275516321736726 -->
<g id="node3" class="node"><title>5146275516321736726</title>
<polygon fill="none" stroke="black" points="274.881,-119.729 217.995,-119.729 217.995,-83.7286 274.881,-83.7286 274.881,-119.729"/>
<text text-anchor="middle" x="246.438" y="-97.5286" font-family="Times,serif" font-size="14.00">mul&#45;#1</text>
</g>
<!-- 5146275516321736726&#45;&gt;&#45;6857805133517970866 -->
<g id="edge5" class="edge"><title>5146275516321736726&#45;&gt;&#45;6857805133517970866</title>
<path fill="none" stroke="black" d="M246.438,-120.095C246.438,-127.589 246.438,-136.606 246.438,-145.255"/>
<polygon fill="black" stroke="black" points="242.938,-145.493 246.438,-155.493 249.938,-145.493 242.938,-145.493"/>
</g>
<!-- &#45;6263191966403252744 -->
<g id="node4" class="node"><title>&#45;6263191966403252744</title>
<ellipse fill="none" stroke="black" cx="246.438" cy="-23.8643" rx="23.7293" ry="23.7293"/>
<text text-anchor="middle" x="246.438" y="-19.6643" font-family="Times,serif" font-size="14.00">mul</text>
</g>
<!-- &#45;6263191966403252744&#45;&gt;5146275516321736726 -->
<g id="edge2" class="edge"><title>&#45;6263191966403252744&#45;&gt;5146275516321736726</title>
<path fill="none" stroke="black" d="M246.438,-48.0383C246.438,-56.1269 246.438,-65.2761 246.438,-73.6538"/>
<polygon fill="black" stroke="black" points="242.938,-73.7149 246.438,-83.7149 249.938,-73.715 242.938,-73.7149"/>
</g>
<!-- 6382134655748669012 -->
<g id="node5" class="node"><title>6382134655748669012</title>
<polygon fill="none" stroke="black" points="273.814,-273.479 219.062,-273.479 219.062,-237.479 273.814,-237.479 273.814,-273.479"/>
<text text-anchor="middle" x="246.438" y="-251.279" font-family="Times,serif" font-size="14.00">add&#45;#2</text>
</g>
<!-- 3008174680667334043 -->
<g id="node14" class="node"><title>3008174680667334043</title>
<ellipse fill="none" stroke="black" cx="173.438" cy="-332.355" rx="22.7515" ry="22.7515"/>
<text text-anchor="middle" x="173.438" y="-328.155" font-family="Times,serif" font-size="14.00">add</text>
</g>
<!-- 6382134655748669012&#45;&gt;3008174680667334043 -->
<g id="edge12" class="edge"><title>6382134655748669012&#45;&gt;3008174680667334043</title>
<path fill="none" stroke="black" d="M229.507,-273.846C219.651,-283.955 207.092,-296.836 196.36,-307.844"/>
<polygon fill="black" stroke="black" points="193.753,-305.505 189.278,-315.108 198.765,-310.391 193.753,-305.505"/>
</g>
<!-- &#45;6857805133517970866&#45;&gt;6382134655748669012 -->
<g id="edge3" class="edge"><title>&#45;6857805133517970866&#45;&gt;6382134655748669012</title>
<path fill="none" stroke="black" d="M246.438,-201.664C246.438,-209.672 246.438,-218.815 246.438,-227.218"/>
<polygon fill="black" stroke="black" points="242.938,-227.325 246.438,-237.325 249.938,-227.325 242.938,-227.325"/>
</g>
<!-- &#45;3094127520236134642 -->
<g id="node7" class="node"><title>&#45;3094127520236134642</title>
<polygon fill="none" stroke="black" points="126.881,-119.729 69.9948,-119.729 69.9948,-83.7286 126.881,-83.7286 126.881,-119.729"/>
<text text-anchor="middle" x="98.438" y="-97.5286" font-family="Times,serif" font-size="14.00">mul&#45;#3</text>
</g>
<!-- &#45;201392152754353354 -->
<g id="node12" class="node"><title>&#45;201392152754353354</title>
<ellipse fill="none" stroke="black" cx="172.438" cy="-178.604" rx="22.7515" ry="22.7515"/>
<text text-anchor="middle" x="172.438" y="-174.404" font-family="Times,serif" font-size="14.00">add</text>
</g>
<!-- &#45;3094127520236134642&#45;&gt;&#45;201392152754353354 -->
<g id="edge10" class="edge"><title>&#45;3094127520236134642&#45;&gt;&#45;201392152754353354</title>
<path fill="none" stroke="black" d="M115.601,-120.095C125.592,-130.204 138.322,-143.085 149.202,-154.093"/>
<polygon fill="black" stroke="black" points="146.862,-156.705 156.381,-161.357 151.841,-151.784 146.862,-156.705"/>
</g>
<!-- &#45;8907241824292543424 -->
<g id="node8" class="node"><title>&#45;8907241824292543424</title>
<ellipse fill="none" stroke="black" cx="98.438" cy="-23.8643" rx="23.7293" ry="23.7293"/>
<text text-anchor="middle" x="98.438" y="-19.6643" font-family="Times,serif" font-size="14.00">mul</text>
</g>
<!-- &#45;8907241824292543424&#45;&gt;&#45;3094127520236134642 -->
<g id="edge6" class="edge"><title>&#45;8907241824292543424&#45;&gt;&#45;3094127520236134642</title>
<path fill="none" stroke="black" d="M98.438,-48.0383C98.438,-56.1269 98.438,-65.2761 98.438,-73.6538"/>
<polygon fill="black" stroke="black" points="94.9381,-73.7149 98.438,-83.7149 101.938,-73.715 94.9381,-73.7149"/>
</g>
<!-- &#45;2927628645423498324 -->
<g id="node9" class="node"><title>&#45;2927628645423498324</title>
<polygon fill="none" stroke="black" points="200.881,-119.729 143.995,-119.729 143.995,-83.7286 200.881,-83.7286 200.881,-119.729"/>
<text text-anchor="middle" x="172.438" y="-97.5286" font-family="Times,serif" font-size="14.00">mul&#45;#4</text>
</g>
<!-- &#45;2927628645423498324&#45;&gt;&#45;201392152754353354 -->
<g id="edge9" class="edge"><title>&#45;2927628645423498324&#45;&gt;&#45;201392152754353354</title>
<path fill="none" stroke="black" d="M172.438,-120.095C172.438,-127.589 172.438,-136.606 172.438,-145.255"/>
<polygon fill="black" stroke="black" points="168.938,-145.493 172.438,-155.493 175.938,-145.493 168.938,-145.493"/>
</g>
<!-- 8156103478481120598 -->
<g id="node10" class="node"><title>8156103478481120598</title>
<ellipse fill="none" stroke="black" cx="172.438" cy="-23.8643" rx="23.7293" ry="23.7293"/>
<text text-anchor="middle" x="172.438" y="-19.6643" font-family="Times,serif" font-size="14.00">mul</text>
</g>
<!-- 8156103478481120598&#45;&gt;&#45;2927628645423498324 -->
<g id="edge7" class="edge"><title>8156103478481120598&#45;&gt;&#45;2927628645423498324</title>
<path fill="none" stroke="black" d="M172.438,-48.0383C172.438,-56.1269 172.438,-65.2761 172.438,-73.6538"/>
<polygon fill="black" stroke="black" points="168.938,-73.7149 172.438,-83.7149 175.938,-73.715 168.938,-73.7149"/>
</g>
<!-- &#45;3087565991351881652 -->
<g id="node11" class="node"><title>&#45;3087565991351881652</title>
<polygon fill="none" stroke="black" points="200.814,-273.479 146.062,-273.479 146.062,-237.479 200.814,-237.479 200.814,-273.479"/>
<text text-anchor="middle" x="173.438" y="-251.279" font-family="Times,serif" font-size="14.00">add&#45;#5</text>
</g>
<!-- &#45;3087565991351881652&#45;&gt;3008174680667334043 -->
<g id="edge13" class="edge"><title>&#45;3087565991351881652&#45;&gt;3008174680667334043</title>
<path fill="none" stroke="black" d="M173.438,-273.846C173.438,-281.34 173.438,-290.357 173.438,-299.005"/>
<polygon fill="black" stroke="black" points="169.938,-299.244 173.438,-309.244 176.938,-299.244 169.938,-299.244"/>
</g>
<!-- &#45;201392152754353354&#45;&gt;&#45;3087565991351881652 -->
<g id="edge8" class="edge"><title>&#45;201392152754353354&#45;&gt;&#45;3087565991351881652</title>
<path fill="none" stroke="black" d="M172.733,-201.664C172.84,-209.672 172.962,-218.815 173.074,-227.218"/>
<polygon fill="black" stroke="black" points="169.576,-227.373 173.209,-237.325 176.575,-227.279 169.576,-227.373"/>
</g>
<!-- &#45;5948970116292007711 -->
<g id="node13" class="node"><title>&#45;5948970116292007711</title>
<polygon fill="none" stroke="black" points="200.814,-427.23 146.062,-427.23 146.062,-391.23 200.814,-391.23 200.814,-427.23"/>
<text text-anchor="middle" x="173.438" y="-405.03" font-family="Times,serif" font-size="14.00">add&#45;#6</text>
</g>
<!-- &#45;8725785586719350481 -->
<g id="node22" class="node"><title>&#45;8725785586719350481</title>
<ellipse fill="none" stroke="black" cx="136.438" cy="-498.386" rx="35.3129" ry="35.3129"/>
<text text-anchor="middle" x="136.438" y="-494.186" font-family="Times,serif" font-size="14.00">truediv</text>
</g>
<!-- &#45;5948970116292007711&#45;&gt;&#45;8725785586719350481 -->
<g id="edge20" class="edge"><title>&#45;5948970116292007711&#45;&gt;&#45;8725785586719350481</title>
<path fill="none" stroke="black" d="M166.128,-427.45C162.581,-435.806 158.154,-446.233 153.811,-456.464"/>
<polygon fill="black" stroke="black" points="150.559,-455.167 149.873,-465.74 157.002,-457.903 150.559,-455.167"/>
</g>
<!-- 3008174680667334043&#45;&gt;&#45;5948970116292007711 -->
<g id="edge11" class="edge"><title>3008174680667334043&#45;&gt;&#45;5948970116292007711</title>
<path fill="none" stroke="black" d="M173.438,-355.415C173.438,-363.422 173.438,-372.566 173.438,-380.969"/>
<polygon fill="black" stroke="black" points="169.938,-381.076 173.438,-391.076 176.938,-381.076 169.938,-381.076"/>
</g>
<!-- &#45;3323307903310434176 -->
<g id="node15" class="node"><title>&#45;3323307903310434176</title>
<polygon fill="none" stroke="black" points="54.8141,-273.479 0.0618719,-273.479 0.0618719,-237.479 54.8141,-237.479 54.8141,-273.479"/>
<text text-anchor="middle" x="27.438" y="-251.279" font-family="Times,serif" font-size="14.00">add&#45;#7</text>
</g>
<!-- &#45;6670523579739796200 -->
<g id="node20" class="node"><title>&#45;6670523579739796200</title>
<ellipse fill="none" stroke="black" cx="100.438" cy="-332.355" rx="22.7515" ry="22.7515"/>
<text text-anchor="middle" x="100.438" y="-328.155" font-family="Times,serif" font-size="14.00">add</text>
</g>
<!-- &#45;3323307903310434176&#45;&gt;&#45;6670523579739796200 -->
<g id="edge17" class="edge"><title>&#45;3323307903310434176&#45;&gt;&#45;6670523579739796200</title>
<path fill="none" stroke="black" d="M44.3691,-273.846C54.225,-283.955 66.7835,-296.836 77.5156,-307.844"/>
<polygon fill="black" stroke="black" points="75.1111,-310.391 84.5981,-315.108 80.1233,-305.505 75.1111,-310.391"/>
</g>
<!-- 3642951267913569170 -->
<g id="node16" class="node"><title>3642951267913569170</title>
<ellipse fill="none" stroke="black" cx="27.438" cy="-178.604" rx="22.7515" ry="22.7515"/>
<text text-anchor="middle" x="27.438" y="-174.404" font-family="Times,serif" font-size="14.00">add</text>
</g>
<!-- 3642951267913569170&#45;&gt;&#45;3323307903310434176 -->
<g id="edge14" class="edge"><title>3642951267913569170&#45;&gt;&#45;3323307903310434176</title>
<path fill="none" stroke="black" d="M27.438,-201.664C27.438,-209.672 27.438,-218.815 27.438,-227.218"/>
<polygon fill="black" stroke="black" points="23.9381,-227.325 27.438,-237.325 30.9381,-227.325 23.9381,-227.325"/>
</g>
<!-- &#45;1242328195989172289 -->
<g id="node17" class="node"><title>&#45;1242328195989172289</title>
<polygon fill="none" stroke="black" points="127.814,-273.479 73.0619,-273.479 73.0619,-237.479 127.814,-237.479 127.814,-273.479"/>
<text text-anchor="middle" x="100.438" y="-251.279" font-family="Times,serif" font-size="14.00">add&#45;#8</text>
</g>
<!-- &#45;1242328195989172289&#45;&gt;&#45;6670523579739796200 -->
<g id="edge18" class="edge"><title>&#45;1242328195989172289&#45;&gt;&#45;6670523579739796200</title>
<path fill="none" stroke="black" d="M100.438,-273.846C100.438,-281.34 100.438,-290.357 100.438,-299.005"/>
<polygon fill="black" stroke="black" points="96.9381,-299.244 100.438,-309.244 103.938,-299.244 96.9381,-299.244"/>
</g>
<!-- 421416116189272833 -->
<g id="node18" class="node"><title>421416116189272833</title>
<ellipse fill="none" stroke="black" cx="100.438" cy="-178.604" rx="22.7515" ry="22.7515"/>
<text text-anchor="middle" x="100.438" y="-174.404" font-family="Times,serif" font-size="14.00">add</text>
</g>
<!-- 421416116189272833&#45;&gt;&#45;1242328195989172289 -->
<g id="edge15" class="edge"><title>421416116189272833&#45;&gt;&#45;1242328195989172289</title>
<path fill="none" stroke="black" d="M100.438,-201.664C100.438,-209.672 100.438,-218.815 100.438,-227.218"/>
<polygon fill="black" stroke="black" points="96.9381,-227.325 100.438,-237.325 103.938,-227.325 96.9381,-227.325"/>
</g>
<!-- &#45;568140286893328010 -->
<g id="node19" class="node"><title>&#45;568140286893328010</title>
<polygon fill="none" stroke="black" points="127.814,-427.23 73.0619,-427.23 73.0619,-391.23 127.814,-391.23 127.814,-427.23"/>
<text text-anchor="middle" x="100.438" y="-405.03" font-family="Times,serif" font-size="14.00">add&#45;#9</text>
</g>
<!-- &#45;568140286893328010&#45;&gt;&#45;8725785586719350481 -->
<g id="edge21" class="edge"><title>&#45;568140286893328010&#45;&gt;&#45;8725785586719350481</title>
<path fill="none" stroke="black" d="M107.55,-427.45C111.002,-435.806 115.309,-446.233 119.535,-456.464"/>
<polygon fill="black" stroke="black" points="116.314,-457.834 123.366,-465.74 122.784,-455.161 116.314,-457.834"/>
</g>
<!-- &#45;6670523579739796200&#45;&gt;&#45;568140286893328010 -->
<g id="edge16" class="edge"><title>&#45;6670523579739796200&#45;&gt;&#45;568140286893328010</title>
<path fill="none" stroke="black" d="M100.438,-355.415C100.438,-363.422 100.438,-372.566 100.438,-380.969"/>
<polygon fill="black" stroke="black" points="96.9381,-381.076 100.438,-391.076 103.938,-381.076 96.9381,-381.076"/>
</g>
<!-- &#45;615226206134025571 -->
<g id="node21" class="node"><title>&#45;615226206134025571</title>
<polygon fill="none" stroke="black" points="177.256,-605.543 95.62,-605.543 95.62,-569.543 177.256,-569.543 177.256,-605.543"/>
<text text-anchor="middle" x="136.438" y="-583.343" font-family="Times,serif" font-size="14.00">truediv&#45;#10</text>
</g>
<!-- &#45;8725785586719350481&#45;&gt;&#45;615226206134025571 -->
<g id="edge19" class="edge"><title>&#45;8725785586719350481&#45;&gt;&#45;615226206134025571</title>
<path fill="none" stroke="black" d="M136.438,-533.583C136.438,-542.071 136.438,-551.059 136.438,-559.172"/>
<polygon fill="black" stroke="black" points="132.938,-559.219 136.438,-569.219 139.938,-559.219 132.938,-559.219"/>
</g>
</g>
</svg>
